<?xml version="1.0" encoding="UTF-8" standalone="no"?><!DOCTYPE svg PUBLIC "-//W3C//DTD SVG 1.1//EN" "http://www.w3.org/Graphics/SVG/1.1/DTD/svg11.dtd"><svg width="100%" height="100%" viewBox="0 0 201 294" version="1.1" xmlns="http://www.w3.org/2000/svg" xmlns:xlink="http://www.w3.org/1999/xlink" xml:space="preserve" xmlns:serif="http://www.serif.com/" style="fill-rule:evenodd;clip-rule:evenodd;stroke-linejoin:round;stroke-miterlimit:2;"><g><g id="Layer1"><path d="M62.651,74.472l80.602,25.059l-60.395,194.269l-32.247,-38.438l-48.356,13.379l60.396,-194.269Z" style="fill:#cb3826;"/><path d="M89.181,200.451l4.407,58.837l6.943,-22.331l-11.35,-36.506Z" style="fill:#a92e23;"/><path d="M62.651,74.47l80.604,25.061l-35.017,112.633c-2.547,0.173 -5.116,0.27 -7.707,0.27c-27.652,0 -52.956,-10.035 -72.485,-26.655l34.605,-111.309Z" style="fill:#a92e23;"/><path d="M122.558,93.096l-56.261,180.963l8.707,10.378l58.434,-187.959l-10.88,-3.382Zm-50.09,-15.572l10.88,3.383l-56.259,180.963l-13.054,3.613l58.433,-187.959Z" style="fill:#ee8c5c;"/><path d="M89.181,200.451l2.318,30.93l3.649,-11.739l-5.967,-19.191Z" style="fill:#ce6733;"/><path d="M97.404,212.387c-3.936,-0.107 -7.82,-0.421 -11.645,-0.924l36.799,-118.367l10.877,3.382l-36.031,115.909Zm-24.936,-134.863l10.879,3.383l-36.61,117.765c-3.45,-1.893 -6.787,-3.968 -10.003,-6.204l35.734,-114.944Z" style="fill:#ce6733;"/><path d="M89.181,200.451l0.862,11.493c0.924,0.085 1.852,0.161 2.783,0.226l-3.645,-11.719Z" style="fill:#b54f26;"/><path d="M138.411,74.472l-80.604,25.059l60.396,194.269l32.247,-38.438l48.356,13.379l-60.395,-194.269Z" style="fill:#cb3826;"/><path d="M138.411,74.472l-80.604,25.059l35.017,112.633c2.548,0.173 5.116,0.27 7.707,0.27c27.652,0 52.956,-10.036 72.483,-26.655l-34.603,-111.307Z" style="fill:#a92e23;"/><path d="M78.504,93.096l56.259,180.963l-8.705,10.378l-58.433,-187.959l10.879,-3.382Zm50.089,-15.572l-10.88,3.383l56.259,180.963l13.055,3.613l-58.434,-187.959Z" style="fill:#ee8c5c;"/><path d="M115.302,211.461c-3.824,0.505 -7.708,0.819 -11.643,0.926l-36.034,-115.909l10.879,-3.382l36.798,118.365Zm13.291,-133.937l-10.88,3.383l36.612,117.765c3.449,-1.895 6.787,-3.968 10.003,-6.205l-35.735,-114.943Z" style="fill:#ce6733;"/><path d="M100.53,201.058c55.37,0 100.53,-45.159 100.53,-100.528c0,-55.371 -45.16,-100.53 -100.53,-100.53c-55.369,0 -100.53,45.159 -100.53,100.53c0,55.369 45.161,100.528 100.53,100.528Z" style="fill:#ee8c5c;"/><path d="M191.012,144.383c-3.83,7.889 -8.66,15.203 -14.329,21.773l-152.307,0c-5.667,-6.57 -10.498,-13.884 -14.328,-21.773l180.964,0Zm6.161,-71.622c2.53,8.82 3.887,18.135 3.887,27.769c0,7.02 -0.722,13.871 -2.093,20.484l-196.874,0c-1.371,-6.613 -2.093,-13.464 -2.093,-20.484c0,-9.634 1.358,-18.949 3.887,-27.769l193.286,0Zm-20.49,-37.858c5.669,6.571 10.498,13.884 14.329,21.773l-180.964,0c3.831,-7.889 8.661,-15.202 14.329,-21.773l152.306,0Z" style="fill:#f8a175;"/><path d="M100.531,188.311c48.349,0 87.783,-39.433 87.783,-87.781c0,-48.351 -39.434,-87.784 -87.783,-87.784c-48.35,0 -87.782,39.433 -87.782,87.784c0,48.348 39.432,87.781 87.782,87.781Z" style="fill:#c55d29;"/><path d="M100.53,185.655c46.887,0 85.128,-38.239 85.128,-85.125c0,-46.887 -38.241,-85.128 -85.128,-85.128c-46.886,0 -85.127,38.241 -85.127,85.128c0,46.886 38.241,85.125 85.127,85.125Z" style="fill:#ce6733;"/><path d="M68.22,41.307c-48.698,26.035 -43.971,92.535 0,120.173l-3.065,3.786c-46.261,-29.714 -48.089,-99.668 2.4,-125.096l0.665,1.137Z" style="fill:#f8a175;"/><path d="M80.507,32.626c0.109,3.214 -1.453,6.396 -4.378,8.22c-2.923,1.826 -6.467,1.83 -9.307,0.322c-0.108,-3.214 1.453,-6.396 4.377,-8.221c2.925,-1.825 6.468,-1.831 9.308,-0.321Z" style="fill:#f8a175;"/><path d="M60.053,28.797c2.866,1.456 4.901,4.358 5.087,7.801c0.188,3.443 -1.518,6.548 -4.21,8.309c-2.868,-1.459 -4.901,-4.361 -5.088,-7.804c-0.188,-3.44 1.519,-6.548 4.211,-8.306Z" style="fill:#f8a175;"/><path d="M75.107,52.605c-2.742,1.678 -6.28,1.888 -9.312,0.242c-3.028,-1.644 -4.779,-4.726 -4.865,-7.94c2.742,-1.679 6.28,-1.889 9.311,-0.243c3.029,1.644 4.779,4.726 4.866,7.941Z" style="fill:#f8a175;"/><path d="M44.149,40.49c3.056,1.005 5.506,3.565 6.214,6.938c0.708,3.375 -0.507,6.704 -2.901,8.852c-3.054,-1.004 -5.505,-3.564 -6.214,-6.938c-0.707,-3.375 0.507,-6.704 2.901,-8.852Z" style="fill:#f8a175;"/><path d="M62.645,61.736c-2.456,2.075 -5.921,2.82 -9.166,1.653c-3.244,-1.166 -5.442,-3.945 -6.017,-7.109c2.457,-2.075 5.922,-2.82 9.166,-1.655c3.246,1.167 5.444,3.947 6.017,7.111Z" style="fill:#f8a175;"/><path d="M30.72,56.995c3.211,0.187 6.236,2.035 7.785,5.114c1.55,3.078 1.229,6.609 -0.534,9.298c-3.211,-0.189 -6.237,-2.034 -7.785,-5.113c-1.55,-3.08 -1.229,-6.61 0.534,-9.299Z" style="fill:#f8a175;"/><path d="M54.044,72.789c-1.841,2.636 -5.001,4.244 -8.435,3.947c-3.435,-0.295 -6.274,-2.418 -7.638,-5.329c1.842,-2.636 5.001,-4.244 8.435,-3.948c3.434,0.294 6.272,2.419 7.638,5.33Z" style="fill:#f8a175;"/><path d="M21.639,76.957c3.153,-0.637 6.55,0.376 8.833,2.958c2.283,2.583 2.875,6.077 1.857,9.128c-3.153,0.636 -6.549,-0.376 -8.833,-2.958c-2.284,-2.582 -2.874,-6.077 -1.857,-9.128Z" style="fill:#f8a175;"/><path d="M48.223,86.275c-1.109,3.021 -3.753,5.38 -7.149,5.971c-3.397,0.592 -6.682,-0.738 -8.745,-3.203c1.108,-3.019 3.752,-5.38 7.148,-5.971c3.396,-0.592 6.683,0.737 8.746,3.203Z" style="fill:#f8a175;"/><path d="M18.375,96.691c2.942,-1.302 6.477,-1.043 9.262,0.986c2.787,2.029 4.118,5.314 3.78,8.512c-2.939,1.303 -6.475,1.044 -9.261,-0.983c-2.786,-2.03 -4.117,-5.316 -3.781,-8.515Z" style="fill:#f8a175;"/><path d="M46.341,100.06c-0.43,3.188 -2.505,6.064 -5.693,7.373c-3.188,1.309 -6.683,0.719 -9.231,-1.244c0.433,-3.186 2.505,-6.062 5.694,-7.372c3.189,-1.309 6.684,-0.72 9.23,1.243Z" style="fill:#f8a175;"/><path d="M20.275,117.303c2.493,-2.031 5.973,-2.711 9.193,-1.488c3.223,1.224 5.371,4.043 5.888,7.217c-2.493,2.031 -5.971,2.712 -9.193,1.488c-3.223,-1.223 -5.371,-4.044 -5.888,-7.217Z" style="fill:#f8a175;"/><path d="M48.142,113.193c0.421,3.189 -0.82,6.508 -3.553,8.609c-2.732,2.102 -6.258,2.455 -9.233,1.23c-0.421,-3.187 0.822,-6.506 3.553,-8.609c2.732,-2.103 6.258,-2.454 9.233,-1.23Z" style="fill:#f8a175;"/><path d="M26.712,139.312c1.734,-2.709 4.823,-4.446 8.267,-4.292c3.442,0.153 6.366,2.157 7.851,5.009c-1.732,2.71 -4.822,4.447 -8.265,4.294c-3.444,-0.153 -6.367,-2.157 -7.853,-5.011Z" style="fill:#f8a175;"/><path d="M51.89,126.68c1.399,2.894 1.259,6.437 -0.677,9.289c-1.935,2.853 -5.175,4.291 -8.383,4.06c-1.399,-2.895 -1.259,-6.437 0.676,-9.289c1.936,-2.854 5.176,-4.291 8.384,-4.06Z" style="fill:#f8a175;"/><path d="M37.5,156.175c1.09,-3.026 3.718,-5.404 7.112,-6.016c3.39,-0.612 6.685,0.694 8.764,3.147c-1.089,3.028 -3.718,5.405 -7.111,6.017c-3.391,0.613 -6.685,-0.695 -8.765,-3.148Z" style="fill:#f8a175;"/><path d="M59.256,138.284c2.007,2.514 2.654,5.997 1.397,9.208c-1.257,3.211 -4.098,5.331 -7.277,5.814c-2.003,-2.513 -2.651,-5.999 -1.395,-9.208c1.256,-3.21 4.098,-5.33 7.275,-5.814Z" style="fill:#f8a175;"/><path d="M132.839,41.307c48.7,26.035 43.973,92.535 0,120.173l3.067,3.786c46.261,-29.714 48.089,-99.668 -2.403,-125.096l-0.664,1.137Z" style="fill:#f8a175;"/><path d="M120.553,32.626c-0.108,3.214 1.453,6.396 4.378,8.22c2.923,1.826 6.468,1.83 9.308,0.322c0.107,-3.214 -1.455,-6.396 -4.377,-8.221c-2.925,-1.825 -6.469,-1.831 -9.309,-0.321Z" style="fill:#f8a175;"/><path d="M141.007,28.797c-2.866,1.456 -4.9,4.358 -5.088,7.801c-0.187,3.443 1.521,6.548 4.212,8.309c2.868,-1.459 4.901,-4.361 5.087,-7.804c0.189,-3.44 -1.518,-6.548 -4.211,-8.306Z" style="fill:#f8a175;"/><path d="M125.953,52.605c2.743,1.678 6.282,1.888 9.312,0.242c3.028,-1.644 4.779,-4.726 4.866,-7.94c-2.743,-1.679 -6.282,-1.889 -9.311,-0.243c-3.029,1.644 -4.779,4.726 -4.867,7.941Z" style="fill:#f8a175;"/><path d="M156.912,40.49c-3.056,1.005 -5.506,3.565 -6.214,6.938c-0.708,3.375 0.507,6.704 2.9,8.852c3.055,-1.004 5.506,-3.564 6.213,-6.938c0.709,-3.375 -0.506,-6.704 -2.899,-8.852Z" style="fill:#f8a175;"/><path d="M138.414,61.736c2.458,2.075 5.922,2.82 9.168,1.653c3.243,-1.166 5.442,-3.945 6.016,-7.109c-2.457,-2.075 -5.923,-2.82 -9.166,-1.655c-3.245,1.167 -5.443,3.947 -6.018,7.111Z" style="fill:#f8a175;"/><path d="M170.34,56.995c-3.211,0.187 -6.235,2.035 -7.785,5.114c-1.55,3.078 -1.228,6.609 0.534,9.298c3.211,-0.189 6.238,-2.034 7.786,-5.113c1.549,-3.08 1.228,-6.61 -0.535,-9.299Z" style="fill:#f8a175;"/><path d="M147.015,72.789c1.843,2.636 5.002,4.244 8.437,3.947c3.433,-0.295 6.271,-2.418 7.637,-5.329c-1.841,-2.636 -5.001,-4.244 -8.434,-3.948c-3.436,0.294 -6.274,2.419 -7.64,5.33Z" style="fill:#f8a175;"/><path d="M179.421,76.957c-3.152,-0.637 -6.549,0.376 -8.833,2.958c-2.283,2.583 -2.875,6.077 -1.856,9.128c3.152,0.636 6.548,-0.376 8.833,-2.958c2.283,-2.582 2.875,-6.077 1.856,-9.128Z" style="fill:#f8a175;"/><path d="M152.837,86.275c1.11,3.021 3.753,5.38 7.149,5.971c3.397,0.592 6.682,-0.738 8.746,-3.203c-1.109,-3.019 -3.752,-5.38 -7.148,-5.971c-3.396,-0.592 -6.683,0.737 -8.747,3.203Z" style="fill:#f8a175;"/><path d="M182.685,96.691c-2.941,-1.302 -6.476,-1.043 -9.263,0.986c-2.785,2.029 -4.116,5.314 -3.779,8.512c2.94,1.303 6.475,1.044 9.262,-0.983c2.786,-2.03 4.117,-5.316 3.78,-8.515Z" style="fill:#f8a175;"/><path d="M154.717,100.06c0.434,3.188 2.505,6.064 5.695,7.373c3.188,1.309 6.684,0.719 9.231,-1.244c-0.433,-3.186 -2.505,-6.062 -5.693,-7.372c-3.19,-1.309 -6.685,-0.72 -9.233,1.243Z" style="fill:#f8a175;"/><path d="M180.786,117.303c-2.494,-2.031 -5.973,-2.711 -9.196,-1.488c-3.22,1.224 -5.369,4.043 -5.885,7.217c2.493,2.031 5.97,2.712 9.193,1.488c3.223,-1.223 5.371,-4.044 5.888,-7.217Z" style="fill:#f8a175;"/><path d="M152.918,113.193c-0.42,3.189 0.821,6.508 3.553,8.609c2.733,2.102 6.259,2.455 9.232,1.23c0.422,-3.187 -0.821,-6.506 -3.551,-8.609c-2.733,-2.103 -6.261,-2.454 -9.234,-1.23Z" style="fill:#f8a175;"/><path d="M174.348,139.312c-1.733,-2.709 -4.822,-4.446 -8.266,-4.292c-3.443,0.153 -6.368,2.157 -7.851,5.009c1.731,2.71 4.82,4.447 8.265,4.294c3.444,-0.153 6.367,-2.157 7.852,-5.011Z" style="fill:#f8a175;"/><path d="M149.17,126.68c-1.398,2.894 -1.258,6.437 0.677,9.289c1.936,2.853 5.176,4.291 8.382,4.06c1.4,-2.895 1.26,-6.437 -0.676,-9.289c-1.936,-2.854 -5.175,-4.291 -8.383,-4.06Z" style="fill:#f8a175;"/><path d="M163.561,156.175c-1.091,-3.026 -3.719,-5.404 -7.112,-6.016c-3.391,-0.612 -6.686,0.694 -8.765,3.147c1.09,3.028 3.719,5.405 7.109,6.017c3.394,0.613 6.688,-0.695 8.768,-3.148Z" style="fill:#f8a175;"/><path d="M141.804,138.284c-2.007,2.514 -2.653,5.997 -1.397,9.208c1.258,3.211 4.097,5.331 7.277,5.814c2.005,-2.513 2.651,-5.999 1.396,-9.208c-1.256,-3.21 -4.098,-5.33 -7.276,-5.814Z" style="fill:#f8a175;"/><path d="M66.525,57.131l23.822,0l0,1.082c-3.06,1.597 -5.16,4.805 -5.16,8.479l0,67.675c0,3.675 2.1,6.881 5.16,8.479l0,1.081l-23.822,0l0,-1.081c3.059,-1.598 5.16,-4.804 5.16,-8.479l0,-67.675c0,-3.674 -2.101,-6.882 -5.16,-8.479l0,-1.082Z" style="fill:#f8a175;"/><path d="M89.665,57.131l23.82,0l0,1.082c-3.061,1.597 -5.16,4.805 -5.16,8.479l0,67.675c0,3.675 2.099,6.881 5.16,8.479l0,1.081l-23.82,0l0,-1.081c3.057,-1.598 5.158,-4.804 5.158,-8.479l0,-67.675c0,-3.674 -2.101,-6.882 -5.158,-8.479l0,-1.082Z" style="fill:#f8a175;"/><path d="M112.8,57.131l23.82,0l0,1.082c-3.058,1.597 -5.159,4.805 -5.159,8.479l0,67.675c0,3.675 2.101,6.881 5.159,8.479l0,1.081l-23.82,0l0,-1.081c3.06,-1.598 5.16,-4.804 5.16,-8.479l0,-67.675c0,-3.674 -2.1,-6.882 -5.16,-8.479l0,-1.082Z" style="fill:#f8a175;"/></g></g></svg>