<?xml version="1.0" encoding="UTF-8" standalone="no"?>
<!DOCTYPE svg PUBLIC "-//W3C//DTD SVG 1.1//EN" "http://www.w3.org/Graphics/SVG/1.1/DTD/svg11.dtd">
<svg width="100%" height="100%" viewBox="0 0 201 294" version="1.1" xmlns="http://www.w3.org/2000/svg" xmlns:xlink="http://www.w3.org/1999/xlink" xml:space="preserve" xmlns:serif="http://www.serif.com/" style="fill-rule:evenodd;clip-rule:evenodd;stroke-linejoin:round;stroke-miterlimit:2;">
    <g>
        <g id="Layer1" transform="matrix(1,0,0,1,-0.970001,-1.51001)">
            <g transform="matrix(1,0,0,1,-230,-83)">
                <path d="M293.62,158.982L374.223,184.04L313.828,378.311L281.58,339.872L233.225,353.251L293.62,158.982Z" style="fill:rgb(203,56,38);"/>
            </g>
            <g transform="matrix(1,0,0,1,-230,-83)">
                <path d="M320.151,284.962L324.558,343.798L331.5,321.467L320.151,284.962Z" style="fill:rgb(169,46,35);"/>
            </g>
            <g transform="matrix(1,0,0,1,-230,-83)">
                <path d="M293.62,158.982L374.224,184.04L339.208,296.674C336.659,296.848 334.091,296.944 331.499,296.944C303.848,296.944 278.543,286.908 259.015,270.289L293.62,158.982Z" style="fill:rgb(169,46,35);"/>
            </g>
            <g transform="matrix(1,0,0,1,-230,-83)">
                <path d="M353.525,177.606L297.268,358.57L305.973,368.947L364.405,180.989L353.525,177.606ZM303.438,162.034L314.317,165.417L258.058,346.381L245.004,349.993L303.438,162.034Z" style="fill:rgb(254,205,3);"/>
            </g>
            <g transform="matrix(1,0,0,1,-230,-83)">
                <path d="M320.151,284.962L322.468,315.89L326.117,304.151L320.151,284.962Z" style="fill:rgb(246,165,28);"/>
            </g>
            <g transform="matrix(1,0,0,1,-230,-83)">
                <path d="M328.373,296.898C324.437,296.789 320.553,296.476 316.729,295.972L353.525,177.606L364.405,180.989L328.373,296.898ZM303.438,162.034L314.316,165.417L277.705,283.183C274.255,281.288 270.919,279.215 267.702,276.979L303.438,162.034Z" style="fill:rgb(246,165,28);"/>
            </g>
            <g transform="matrix(1,0,0,1,-230,-83)">
                <path d="M320.151,284.962L321.012,296.453C321.937,296.539 322.864,296.615 323.794,296.679L320.151,284.962Z" style="fill:rgb(217,144,40);"/>
            </g>
            <g transform="matrix(1,0,0,1,-230,-83)">
                <path d="M369.38,158.982L288.777,184.04L349.173,378.311L381.419,339.872L429.775,353.251L369.38,158.982Z" style="fill:rgb(203,56,38);"/>
            </g>
            <g transform="matrix(1,0,0,1,-230,-83)">
                <path d="M369.38,158.982L288.777,184.04L323.793,296.674C326.34,296.848 328.908,296.944 331.499,296.944C359.151,296.944 384.455,286.908 403.983,270.288L369.38,158.982Z" style="fill:rgb(169,46,35);"/>
            </g>
            <g transform="matrix(1,0,0,1,-230,-83)">
                <path d="M309.473,177.606L365.731,358.57L357.026,368.947L298.593,180.989L309.473,177.606ZM359.563,162.034L348.683,165.417L404.941,346.381L417.996,349.993L359.563,162.034Z" style="fill:rgb(254,205,3);"/>
            </g>
            <g transform="matrix(1,0,0,1,-230,-83)">
                <path d="M346.271,295.971C342.447,296.475 338.563,296.789 334.628,296.898L298.593,180.989L309.473,177.606L346.271,295.971ZM359.563,162.034L348.683,165.417L385.295,283.182C388.745,281.288 392.08,279.214 395.297,276.978L359.563,162.034Z" style="fill:rgb(246,165,28);"/>
            </g>
            <g transform="matrix(1,0,0,1,-230,-83)">
                <path d="M331.499,285.569C386.869,285.569 432.029,240.409 432.029,185.04C432.029,129.67 386.869,84.51 331.499,84.51C276.13,84.51 230.97,129.67 230.97,185.04C230.97,240.409 276.13,285.569 331.499,285.569Z" style="fill:rgb(252,221,45);"/>
            </g>
            <g transform="matrix(1,0,0,1,-230,-83)">
                <path d="M421.981,228.893C418.151,236.782 413.32,244.095 407.651,250.665L255.346,250.665C249.679,244.095 244.848,236.782 241.018,228.893L421.981,228.893ZM428.142,157.271C430.672,166.091 432.029,175.407 432.029,185.04C432.029,192.06 431.308,198.911 429.937,205.525L233.061,205.525C231.691,198.911 230.97,192.06 230.97,185.04C230.97,175.407 232.327,166.091 234.857,157.271L428.142,157.271ZM407.651,119.413C413.32,125.985 418.15,133.298 421.981,141.186L241.018,141.186C244.848,133.298 249.679,125.985 255.347,119.413L407.651,119.413Z" style="fill:rgb(251,242,128);"/>
            </g>
            <g transform="matrix(1,0,0,1,-230,-83)">
                <path d="M331.5,272.823C379.849,272.823 419.283,233.389 419.283,185.04C419.283,136.691 379.849,97.257 331.5,97.257C283.151,97.257 243.717,136.691 243.717,185.04C243.717,233.389 283.151,272.823 331.5,272.823Z" style="fill:rgb(249,183,21);"/>
            </g>
            <g transform="matrix(1,0,0,1,-230,-83)">
                <path d="M331.499,270.166C378.386,270.166 416.627,231.926 416.627,185.04C416.627,138.153 378.386,99.913 331.499,99.913C284.613,99.913 246.372,138.153 246.372,185.04C246.372,231.926 284.613,270.166 331.499,270.166Z" style="fill:rgb(253,186,17);"/>
            </g>
            <g transform="matrix(1,0,0,1,-230,-83)">
                <path d="M299.189,125.818C250.491,151.853 255.218,218.351 299.189,245.991L296.124,249.777C249.864,220.062 248.035,150.109 298.525,124.681L299.189,125.818Z" style="fill:rgb(252,221,45);"/>
            </g>
            <g transform="matrix(1,0,0,1,-230,-83)">
                <path d="M311.477,117.135C311.585,120.349 310.023,123.532 307.099,125.357C304.175,127.182 300.63,127.187 297.791,125.678C297.683,122.464 299.244,119.282 302.168,117.456C305.093,115.631 308.637,115.627 311.477,117.135Z" style="fill:rgb(252,221,45);"/>
            </g>
            <g transform="matrix(1,0,0,1,-230,-83)">
                <path d="M291.022,113.306C293.889,114.763 295.922,117.666 296.11,121.108C296.297,124.551 294.59,127.657 291.899,129.416C289.031,127.959 286.998,125.056 286.811,121.614C286.623,118.172 288.33,115.065 291.022,113.306Z" style="fill:rgb(252,221,45);"/>
            </g>
            <g transform="matrix(1,0,0,1,-230,-83)">
                <path d="M306.077,137.115C303.333,138.792 299.795,139.002 296.766,137.358C293.736,135.713 291.985,132.63 291.899,129.416C294.642,127.738 298.18,127.529 301.21,129.173C304.239,130.818 305.989,133.9 306.077,137.115Z" style="fill:rgb(252,221,45);"/>
            </g>
            <g transform="matrix(1,0,0,1,-230,-83)">
                <path d="M275.118,125C278.173,126.005 280.624,128.565 281.332,131.939C282.04,135.313 280.825,138.642 278.432,140.79C275.376,139.785 272.926,137.226 272.218,133.852C271.51,130.478 272.725,127.148 275.118,125Z" style="fill:rgb(252,221,45);"/>
            </g>
            <g transform="matrix(1,0,0,1,-230,-83)">
                <path d="M293.615,146.245C291.158,148.321 287.693,149.065 284.449,147.9C281.205,146.734 279.005,143.955 278.432,140.79C280.888,138.715 284.354,137.971 287.598,139.136C290.842,140.301 293.041,143.081 293.615,146.245Z" style="fill:rgb(252,221,45);"/>
            </g>
            <g transform="matrix(1,0,0,1,-230,-83)">
                <path d="M261.689,141.505C264.9,141.692 267.925,143.539 269.474,146.619C271.023,149.698 270.703,153.228 268.939,155.917C265.729,155.73 262.703,153.883 261.153,150.804C259.605,147.724 259.926,144.194 261.689,141.505Z" style="fill:rgb(252,221,45);"/>
            </g>
            <g transform="matrix(1,0,0,1,-230,-83)">
                <path d="M285.014,157.299C283.172,159.934 280.012,161.542 276.578,161.247C273.144,160.952 270.306,158.828 268.939,155.917C270.783,153.282 273.94,151.673 277.375,151.969C280.81,152.264 283.648,154.387 285.014,157.299Z" style="fill:rgb(252,221,45);"/>
            </g>
            <g transform="matrix(1,0,0,1,-230,-83)">
                <path d="M252.609,161.468C255.761,160.829 259.157,161.843 261.441,164.425C263.725,167.007 264.316,170.502 263.298,173.552C260.146,174.191 256.749,173.177 254.465,170.595C252.182,168.013 251.591,164.518 252.609,161.468Z" style="fill:rgb(252,221,45);"/>
            </g>
            <g transform="matrix(1,0,0,1,-230,-83)">
                <path d="M279.192,170.785C278.083,173.805 275.439,176.166 272.043,176.757C268.646,177.348 265.361,176.019 263.298,173.552C264.406,170.534 267.05,168.173 270.446,167.582C273.842,166.991 277.128,168.319 279.192,170.785Z" style="fill:rgb(252,221,45);"/>
            </g>
            <g transform="matrix(1,0,0,1,-230,-83)">
                <path d="M249.345,181.202C252.286,179.9 255.82,180.158 258.607,182.186C261.393,184.216 262.724,187.501 262.387,190.7C259.446,192.001 255.911,191.744 253.125,189.715C250.338,187.685 249.008,184.4 249.345,181.202Z" style="fill:rgb(252,221,45);"/>
            </g>
            <g transform="matrix(1,0,0,1,-230,-83)">
                <path d="M277.312,184.572C276.879,187.758 274.806,190.633 271.618,191.943C268.429,193.252 264.934,192.662 262.387,190.7C262.819,187.513 264.891,184.637 268.08,183.328C271.269,182.019 274.765,182.608 277.312,184.572Z" style="fill:rgb(252,221,45);"/>
            </g>
            <g transform="matrix(1,0,0,1,-230,-83)">
                <path d="M251.244,201.813C253.738,199.783 257.216,199.1 260.437,200.325C263.661,201.549 265.809,204.369 266.325,207.543C263.832,209.573 260.353,210.255 257.131,209.031C253.909,207.806 251.76,204.987 251.244,201.813Z" style="fill:rgb(252,221,45);"/>
            </g>
            <g transform="matrix(1,0,0,1,-230,-83)">
                <path d="M279.111,197.703C279.532,200.891 278.29,204.21 275.559,206.313C272.827,208.415 269.3,208.766 266.326,207.543C265.904,204.355 267.147,201.035 269.878,198.932C272.61,196.83 276.137,196.479 279.111,197.703Z" style="fill:rgb(252,221,45);"/>
            </g>
            <g transform="matrix(1,0,0,1,-230,-83)">
                <path d="M257.682,223.824C259.414,221.114 262.504,219.376 265.948,219.53C269.391,219.683 272.314,221.688 273.8,224.54C272.067,227.249 268.978,228.986 265.534,228.833C262.09,228.681 259.167,226.677 257.682,223.824Z" style="fill:rgb(252,221,45);"/>
            </g>
            <g transform="matrix(1,0,0,1,-230,-83)">
                <path d="M282.858,211.189C284.258,214.085 284.118,217.627 282.183,220.479C280.247,223.332 277.007,224.77 273.8,224.54C272.4,221.644 272.541,218.103 274.476,215.25C276.412,212.398 279.651,210.959 282.858,211.189Z" style="fill:rgb(252,221,45);"/>
            </g>
            <g transform="matrix(1,0,0,1,-230,-83)">
                <path d="M268.469,240.685C269.559,237.659 272.188,235.282 275.58,234.668C278.972,234.056 282.266,235.364 284.346,237.817C283.255,240.843 280.627,243.221 277.235,243.833C273.843,244.446 270.548,243.138 268.469,240.685Z" style="fill:rgb(252,221,45);"/>
            </g>
            <g transform="matrix(1,0,0,1,-230,-83)">
                <path d="M290.227,222.793C292.232,225.308 292.878,228.792 291.622,232.003C290.366,235.213 287.525,237.332 284.346,237.817C282.34,235.303 281.694,231.818 282.95,228.608C284.206,225.398 287.047,223.279 290.227,222.793Z" style="fill:rgb(252,221,45);"/>
            </g>
            <g transform="matrix(1,0,0,1,-230,-83)">
                <path d="M363.81,125.818C412.508,151.853 407.781,218.351 363.81,245.991L366.875,249.777C413.136,220.062 414.964,150.109 364.473,124.681L363.81,125.818Z" style="fill:rgb(252,221,45);"/>
            </g>
            <g transform="matrix(1,0,0,1,-230,-83)">
                <path d="M351.521,117.135C351.414,120.349 352.975,123.532 355.899,125.357C358.823,127.182 362.368,127.187 365.208,125.678C365.315,122.464 363.754,119.282 360.83,117.456C357.907,115.631 354.361,115.627 351.521,117.135Z" style="fill:rgb(252,221,45);"/>
            </g>
            <g transform="matrix(1,0,0,1,-230,-83)">
                <path d="M371.978,113.306C369.11,114.763 367.076,117.666 366.888,121.108C366.702,124.551 368.408,127.657 371.1,129.416C373.967,127.959 376.001,125.056 376.188,121.614C376.375,118.172 374.669,115.065 371.978,113.306Z" style="fill:rgb(252,221,45);"/>
            </g>
            <g transform="matrix(1,0,0,1,-230,-83)">
                <path d="M356.923,137.115C359.665,138.792 363.205,139.002 366.233,137.358C369.263,135.713 371.014,132.63 371.1,129.416C368.355,127.738 364.819,127.529 361.79,129.173C358.76,130.818 357.009,133.9 356.923,137.115Z" style="fill:rgb(252,221,45);"/>
            </g>
            <g transform="matrix(1,0,0,1,-230,-83)">
                <path d="M387.881,125C384.825,126.005 382.374,128.565 381.667,131.939C380.958,135.313 382.174,138.642 384.566,140.79C387.622,139.785 390.073,137.226 390.781,133.852C391.489,130.478 390.273,127.148 387.881,125Z" style="fill:rgb(252,221,45);"/>
            </g>
            <g transform="matrix(1,0,0,1,-230,-83)">
                <path d="M369.383,146.245C371.84,148.321 375.306,149.065 378.55,147.9C381.793,146.734 383.993,143.955 384.566,140.79C382.11,138.715 378.646,137.971 375.401,139.136C372.156,140.301 369.958,143.081 369.383,146.245Z" style="fill:rgb(252,221,45);"/>
            </g>
            <g transform="matrix(1,0,0,1,-230,-83)">
                <path d="M401.31,141.505C398.099,141.692 395.074,143.539 393.524,146.619C391.975,149.698 392.296,153.228 394.059,155.917C397.27,155.73 400.295,153.883 401.844,150.804C403.394,147.724 403.071,144.194 401.31,141.505Z" style="fill:rgb(252,221,45);"/>
            </g>
            <g transform="matrix(1,0,0,1,-230,-83)">
                <path d="M377.985,157.299C379.827,159.934 382.986,161.542 386.42,161.247C389.854,160.952 392.693,158.828 394.059,155.917C392.217,153.282 389.058,151.673 385.623,151.969C382.188,152.264 379.35,154.387 377.985,157.299Z" style="fill:rgb(252,221,45);"/>
            </g>
            <g transform="matrix(1,0,0,1,-230,-83)">
                <path d="M410.39,161.468C407.238,160.829 403.841,161.843 401.558,164.425C399.273,167.007 398.683,170.502 399.701,173.552C402.853,174.191 406.25,173.177 408.533,170.595C410.817,168.013 411.408,164.518 410.39,161.468Z" style="fill:rgb(252,221,45);"/>
            </g>
            <g transform="matrix(1,0,0,1,-230,-83)">
                <path d="M383.807,170.785C384.916,173.805 387.559,176.166 390.956,176.757C394.352,177.348 397.638,176.019 399.701,173.552C398.592,170.534 395.948,168.173 392.553,167.582C389.157,166.991 385.87,168.319 383.807,170.785Z" style="fill:rgb(252,221,45);"/>
            </g>
            <g transform="matrix(1,0,0,1,-230,-83)">
                <path d="M413.653,181.202C410.713,179.9 407.178,180.158 404.391,182.186C401.605,184.216 400.274,187.501 400.612,190.7C403.552,192.001 407.087,191.744 409.873,189.715C412.66,187.685 413.991,184.4 413.653,181.202Z" style="fill:rgb(252,221,45);"/>
            </g>
            <g transform="matrix(1,0,0,1,-230,-83)">
                <path d="M385.687,184.572C386.119,187.758 388.193,190.633 391.38,191.943C394.569,193.252 398.064,192.662 400.612,190.7C400.18,187.513 398.107,184.637 394.918,183.328C391.729,182.019 388.234,182.608 385.687,184.572Z" style="fill:rgb(252,221,45);"/>
            </g>
            <g transform="matrix(1,0,0,1,-230,-83)">
                <path d="M411.755,201.813C409.26,199.783 405.782,199.1 402.56,200.325C399.339,201.549 397.19,204.369 396.674,207.543C399.167,209.573 402.645,210.255 405.867,209.031C409.09,207.806 411.238,204.987 411.755,201.813Z" style="fill:rgb(252,221,45);"/>
            </g>
            <g transform="matrix(1,0,0,1,-230,-83)">
                <path d="M383.888,197.703C383.466,200.891 384.708,204.21 387.44,206.313C390.173,208.415 393.699,208.766 396.674,207.543C397.095,204.355 395.852,201.035 393.121,198.932C390.389,196.83 386.86,196.479 383.888,197.703Z" style="fill:rgb(252,221,45);"/>
            </g>
            <g transform="matrix(1,0,0,1,-230,-83)">
                <path d="M405.317,223.824C403.584,221.114 400.495,219.376 397.051,219.53C393.608,219.683 390.685,221.688 389.199,224.54C390.932,227.249 394.021,228.986 397.465,228.833C400.908,228.681 403.832,226.677 405.317,223.824Z" style="fill:rgb(252,221,45);"/>
            </g>
            <g transform="matrix(1,0,0,1,-230,-83)">
                <path d="M380.14,211.189C378.741,214.085 378.88,217.627 380.816,220.479C382.752,223.332 385.992,224.77 389.198,224.54C390.599,221.644 390.457,218.103 388.523,215.25C386.588,212.398 383.348,210.959 380.14,211.189Z" style="fill:rgb(252,221,45);"/>
            </g>
            <g transform="matrix(1,0,0,1,-230,-83)">
                <path d="M394.529,240.685C393.439,237.659 390.811,235.282 387.418,234.668C384.026,234.056 380.732,235.364 378.653,237.817C379.743,240.843 382.371,243.221 385.763,243.833C389.155,244.446 392.45,243.138 394.529,240.685Z" style="fill:rgb(252,221,45);"/>
            </g>
            <g transform="matrix(1,0,0,1,-230,-83)">
                <path d="M372.772,222.793C370.769,225.308 370.119,228.792 371.376,232.003C372.632,235.213 375.473,237.332 378.653,237.817C380.657,235.303 381.305,231.818 380.049,228.608C378.792,225.398 375.951,223.279 372.772,222.793Z" style="fill:rgb(252,221,45);"/>
            </g>
            <g transform="matrix(1,0,0,1,-230,-83)">
                <path d="M315.87,141.641L347.129,141.641L347.129,142.722C344.07,144.322 341.97,147.528 341.97,151.201L341.97,218.878C341.97,222.551 344.07,225.758 347.129,227.357L347.129,228.437L315.87,228.437L315.87,227.357C318.929,225.758 321.029,222.551 321.029,218.878L321.029,151.201C321.029,147.528 318.929,144.322 315.87,142.722L315.87,141.641Z" style="fill:rgb(252,221,45);"/>
            </g>
        </g>
    </g>
</svg>
