<?xml version="1.0" encoding="UTF-8" standalone="no"?><!DOCTYPE svg PUBLIC "-//W3C//DTD SVG 1.1//EN" "http://www.w3.org/Graphics/SVG/1.1/DTD/svg11.dtd"><svg width="100%" height="100%" viewBox="0 0 201 294" version="1.1" xmlns="http://www.w3.org/2000/svg" xmlns:xlink="http://www.w3.org/1999/xlink" xml:space="preserve" xmlns:serif="http://www.serif.com/" style="fill-rule:evenodd;clip-rule:evenodd;stroke-linejoin:round;stroke-miterlimit:2;"><g><g id="Layer1"><path d="M62.651,74.472l80.603,25.059l-60.395,194.269l-32.248,-38.438l-48.356,13.379l60.396,-194.269Z" style="fill:#cb3826;"/><path d="M89.182,200.451l4.407,58.837l6.942,-22.331l-11.349,-36.506Z" style="fill:#a92e23;"/><path d="M62.651,74.47l80.603,25.061l-35.015,112.633c-2.549,0.173 -5.117,0.27 -7.709,0.27c-27.652,0 -52.956,-10.035 -72.483,-26.655l34.604,-111.309Z" style="fill:#a92e23;"/><path d="M122.557,93.096l-56.26,180.963l8.706,10.378l58.433,-187.959l-10.879,-3.382Zm-50.09,-15.572l10.88,3.383l-56.258,180.963l-13.055,3.613l58.433,-187.959Z" style="fill:#bdbdbd;"/><path d="M89.182,200.451l2.316,30.93l3.65,-11.739l-5.966,-19.191Z" style="fill:#858389;"/><path d="M97.403,212.387c-3.936,-0.107 -7.821,-0.421 -11.645,-0.924l36.799,-118.367l10.879,3.382l-36.033,115.909Zm-24.936,-134.863l10.88,3.383l-36.612,117.765c-3.449,-1.893 -6.785,-3.968 -10.002,-6.204l35.734,-114.944Z" style="fill:#858389;"/><path d="M89.182,200.451l0.86,11.493c0.925,0.085 1.852,0.161 2.782,0.226l-3.642,-11.719Z" style="fill:#69686d;"/><path d="M138.411,74.472l-80.603,25.059l60.394,194.269l32.248,-38.438l48.355,13.379l-60.394,-194.269Z" style="fill:#cb3826;"/><path d="M138.411,74.472l-80.603,25.059l35.015,112.633c2.547,0.173 5.116,0.27 7.707,0.27c27.652,0 52.956,-10.036 72.484,-26.655l-34.603,-111.307Z" style="fill:#a92e23;"/><path d="M78.504,93.096l56.259,180.963l-8.705,10.378l-58.434,-187.959l10.88,-3.382Zm50.089,-15.572l-10.88,3.383l56.259,180.963l13.055,3.613l-58.434,-187.959Z" style="fill:#bdbdbd;"/><path d="M115.302,211.461c-3.824,0.505 -7.708,0.819 -11.643,0.926l-36.035,-115.909l10.88,-3.382l36.798,118.365Zm13.291,-133.937l-10.88,3.383l36.612,117.765c3.45,-1.895 6.787,-3.968 10.003,-6.205l-35.735,-114.943Z" style="fill:#858389;"/><path d="M100.53,201.058c55.37,0 100.53,-45.159 100.53,-100.528c0,-55.371 -45.16,-100.53 -100.53,-100.53c-55.37,0 -100.53,45.159 -100.53,100.53c0,55.369 45.16,100.528 100.53,100.528Z" style="fill:#bdbdbd;"/><path d="M191.012,144.383c-3.83,7.889 -8.661,15.203 -14.329,21.773l-152.307,0c-5.667,-6.57 -10.498,-13.884 -14.329,-21.773l180.965,0Zm6.16,-71.622c2.531,8.82 3.888,18.135 3.888,27.769c0,7.02 -0.722,13.871 -2.092,20.484l-196.877,0c-1.37,-6.613 -2.091,-13.464 -2.091,-20.484c0,-9.634 1.357,-18.949 3.888,-27.769l193.284,0Zm-20.489,-37.858c5.668,6.571 10.499,13.884 14.329,21.773l-180.965,0c3.831,-7.889 8.662,-15.202 14.33,-21.773l152.306,0Z" style="fill:#ececec;"/><path d="M100.531,188.311c48.348,0 87.782,-39.433 87.782,-87.781c0,-48.351 -39.434,-87.784 -87.782,-87.784c-48.35,0 -87.783,39.433 -87.783,87.784c0,48.348 39.433,87.781 87.783,87.781Z" style="fill:#858389;"/><path d="M100.53,185.655c46.886,0 85.127,-38.239 85.127,-85.125c0,-46.887 -38.241,-85.128 -85.127,-85.128c-46.886,0 -85.128,38.241 -85.128,85.128c0,46.886 38.242,85.125 85.128,85.125Z" style="fill:#bdbdbd;"/><path d="M68.22,41.307c-48.699,26.035 -43.972,92.535 0,120.173l-3.066,3.786c-46.261,-29.714 -48.09,-99.668 2.402,-125.096l0.664,1.137Z" style="fill:#ececec;"/><path d="M80.508,32.626c0.107,3.214 -1.454,6.396 -4.379,8.22c-2.923,1.826 -6.468,1.83 -9.308,0.322c-0.108,-3.214 1.454,-6.396 4.378,-8.221c2.924,-1.825 6.468,-1.831 9.309,-0.321Z" style="fill:#ececec;"/><path d="M60.053,28.797c2.866,1.456 4.9,4.358 5.088,7.801c0.187,3.443 -1.52,6.548 -4.212,8.309c-2.867,-1.459 -4.901,-4.361 -5.088,-7.804c-0.187,-3.44 1.519,-6.548 4.212,-8.306Z" style="fill:#ececec;"/><path d="M75.107,52.605c-2.744,1.678 -6.282,1.888 -9.311,0.242c-3.029,-1.644 -4.78,-4.726 -4.867,-7.94c2.744,-1.679 6.282,-1.889 9.311,-0.243c3.029,1.644 4.78,4.726 4.867,7.941Z" style="fill:#ececec;"/><path d="M44.149,40.49c3.055,1.005 5.506,3.565 6.214,6.938c0.707,3.375 -0.507,6.704 -2.901,8.852c-3.055,-1.004 -5.505,-3.564 -6.214,-6.938c-0.708,-3.375 0.507,-6.704 2.901,-8.852Z" style="fill:#ececec;"/><path d="M62.645,61.736c-2.457,2.075 -5.921,2.82 -9.167,1.653c-3.243,-1.166 -5.442,-3.945 -6.016,-7.109c2.457,-2.075 5.921,-2.82 9.166,-1.655c3.245,1.167 5.443,3.947 6.017,7.111Z" style="fill:#ececec;"/><path d="M30.72,56.995c3.21,0.187 6.235,2.035 7.785,5.114c1.549,3.078 1.228,6.609 -0.535,9.298c-3.21,-0.189 -6.236,-2.034 -7.785,-5.113c-1.549,-3.08 -1.228,-6.61 0.535,-9.299Z" style="fill:#ececec;"/><path d="M54.045,72.789c-1.843,2.636 -5.002,4.244 -8.437,3.947c-3.434,-0.295 -6.272,-2.418 -7.638,-5.329c1.842,-2.636 5.001,-4.244 8.436,-3.948c3.434,0.294 6.272,2.419 7.639,5.33Z" style="fill:#ececec;"/><path d="M21.64,76.957c3.151,-0.637 6.548,0.376 8.831,2.958c2.284,2.583 2.875,6.077 1.857,9.128c-3.153,0.636 -6.548,-0.376 -8.833,-2.958c-2.283,-2.582 -2.874,-6.077 -1.855,-9.128Z" style="fill:#ececec;"/><path d="M48.223,86.275c-1.11,3.021 -3.753,5.38 -7.149,5.971c-3.397,0.592 -6.682,-0.738 -8.746,-3.203c1.109,-3.019 3.753,-5.38 7.149,-5.971c3.396,-0.592 6.682,0.737 8.746,3.203Z" style="fill:#ececec;"/><path d="M18.375,96.691c2.94,-1.302 6.476,-1.043 9.262,0.986c2.787,2.029 4.117,5.314 3.781,8.512c-2.941,1.303 -6.476,1.044 -9.263,-0.983c-2.786,-2.03 -4.116,-5.316 -3.78,-8.515Z" style="fill:#ececec;"/><path d="M46.342,100.06c-0.432,3.188 -2.505,6.064 -5.694,7.373c-3.189,1.309 -6.683,0.719 -9.23,-1.244c0.432,-3.186 2.504,-6.062 5.693,-7.372c3.189,-1.309 6.684,-0.72 9.231,1.243Z" style="fill:#ececec;"/><path d="M20.274,117.303c2.494,-2.031 5.973,-2.711 9.195,-1.488c3.222,1.224 5.37,4.043 5.887,7.217c-2.494,2.031 -5.972,2.712 -9.194,1.488c-3.223,-1.223 -5.371,-4.044 -5.888,-7.217Z" style="fill:#ececec;"/><path d="M48.142,113.193c0.421,3.189 -0.821,6.508 -3.554,8.609c-2.731,2.102 -6.257,2.455 -9.232,1.23c-0.421,-3.187 0.822,-6.506 3.553,-8.609c2.732,-2.103 6.259,-2.454 9.233,-1.23Z" style="fill:#ececec;"/><path d="M26.712,139.312c1.733,-2.709 4.823,-4.446 8.266,-4.292c3.443,0.153 6.367,2.157 7.852,5.009c-1.733,2.71 -4.822,4.447 -8.265,4.294c-3.444,-0.153 -6.368,-2.157 -7.853,-5.011Z" style="fill:#ececec;"/><path d="M51.889,126.68c1.399,2.894 1.259,6.437 -0.677,9.289c-1.935,2.853 -5.174,4.291 -8.382,4.06c-1.399,-2.895 -1.259,-6.437 0.677,-9.289c1.935,-2.854 5.175,-4.291 8.382,-4.06Z" style="fill:#ececec;"/><path d="M37.5,156.175c1.089,-3.026 3.718,-5.404 7.11,-6.016c3.392,-0.612 6.687,0.694 8.766,3.147c-1.09,3.028 -3.718,5.405 -7.11,6.017c-3.393,0.613 -6.687,-0.695 -8.766,-3.148Z" style="fill:#ececec;"/><path d="M59.257,138.284c2.005,2.514 2.652,5.997 1.395,9.208c-1.256,3.211 -4.097,5.331 -7.276,5.814c-2.005,-2.513 -2.651,-5.999 -1.396,-9.208c1.257,-3.21 4.098,-5.33 7.277,-5.814Z" style="fill:#ececec;"/><path d="M132.84,41.307c48.697,26.035 43.971,92.535 0,120.173l3.066,3.786c46.259,-29.714 48.088,-99.668 -2.402,-125.096l-0.664,1.137Z" style="fill:#ececec;"/><path d="M120.552,32.626c-0.108,3.214 1.454,6.396 4.378,8.22c2.924,1.826 6.468,1.83 9.309,0.322c0.108,-3.214 -1.454,-6.396 -4.378,-8.221c-2.925,-1.825 -6.468,-1.831 -9.309,-0.321Z" style="fill:#ececec;"/><path d="M141.007,28.797c-2.867,1.456 -4.9,4.358 -5.088,7.801c-0.187,3.443 1.519,6.548 4.211,8.309c2.868,-1.459 4.901,-4.361 5.088,-7.804c0.188,-3.44 -1.519,-6.548 -4.211,-8.306Z" style="fill:#ececec;"/><path d="M125.953,52.605c2.743,1.678 6.281,1.888 9.311,0.242c3.029,-1.644 4.78,-4.726 4.866,-7.94c-2.743,-1.679 -6.281,-1.889 -9.311,-0.243c-3.029,1.644 -4.779,4.726 -4.866,7.941Z" style="fill:#ececec;"/><path d="M156.911,40.49c-3.055,1.005 -5.506,3.565 -6.214,6.938c-0.708,3.375 0.507,6.704 2.901,8.852c3.055,-1.004 5.505,-3.564 6.213,-6.938c0.708,-3.375 -0.506,-6.704 -2.9,-8.852Z" style="fill:#ececec;"/><path d="M138.415,61.736c2.456,2.075 5.921,2.82 9.165,1.653c3.245,-1.166 5.443,-3.945 6.018,-7.109c-2.458,-2.075 -5.922,-2.82 -9.167,-1.655c-3.244,1.167 -5.443,3.947 -6.016,7.111Z" style="fill:#ececec;"/><path d="M170.34,56.995c-3.211,0.187 -6.236,2.035 -7.785,5.114c-1.549,3.078 -1.228,6.609 0.535,9.298c3.21,-0.189 6.236,-2.034 7.784,-5.113c1.55,-3.08 1.229,-6.61 -0.534,-9.299Z" style="fill:#ececec;"/><path d="M147.015,72.789c1.842,2.636 5.002,4.244 8.436,3.947c3.435,-0.295 6.273,-2.418 7.639,-5.329c-1.843,-2.636 -5.001,-4.244 -8.436,-3.948c-3.434,0.294 -6.273,2.419 -7.639,5.33Z" style="fill:#ececec;"/><path d="M179.42,76.957c-3.152,-0.637 -6.548,0.376 -8.832,2.958c-2.283,2.583 -2.875,6.077 -1.857,9.128c3.153,0.636 6.549,-0.376 8.833,-2.958c2.284,-2.582 2.874,-6.077 1.856,-9.128Z" style="fill:#ececec;"/><path d="M152.837,86.275c1.11,3.021 3.753,5.38 7.149,5.971c3.397,0.592 6.682,-0.738 8.745,-3.203c-1.108,-3.019 -3.752,-5.38 -7.148,-5.971c-3.396,-0.592 -6.682,0.737 -8.746,3.203Z" style="fill:#ececec;"/><path d="M182.684,96.691c-2.94,-1.302 -6.476,-1.043 -9.262,0.986c-2.786,2.029 -4.117,5.314 -3.78,8.512c2.94,1.303 6.475,1.044 9.262,-0.983c2.787,-2.03 4.116,-5.316 3.78,-8.515Z" style="fill:#ececec;"/><path d="M154.718,100.06c0.432,3.188 2.505,6.064 5.694,7.373c3.189,1.309 6.683,0.719 9.23,-1.244c-0.432,-3.186 -2.505,-6.062 -5.693,-7.372c-3.189,-1.309 -6.684,-0.72 -9.231,1.243Z" style="fill:#ececec;"/><path d="M180.786,117.303c-2.495,-2.031 -5.973,-2.711 -9.196,-1.488c-3.221,1.224 -5.369,4.043 -5.886,7.217c2.493,2.031 5.971,2.712 9.194,1.488c3.223,-1.223 5.371,-4.044 5.888,-7.217Z" style="fill:#ececec;"/><path d="M152.918,113.193c-0.422,3.189 0.821,6.508 3.553,8.609c2.732,2.102 6.258,2.455 9.233,1.23c0.421,-3.187 -0.822,-6.506 -3.553,-8.609c-2.732,-2.103 -6.259,-2.454 -9.233,-1.23Z" style="fill:#ececec;"/><path d="M174.348,139.312c-1.733,-2.709 -4.823,-4.446 -8.266,-4.292c-3.444,0.153 -6.367,2.157 -7.853,5.009c1.733,2.71 4.823,4.447 8.266,4.294c3.444,-0.153 6.367,-2.157 7.853,-5.011Z" style="fill:#ececec;"/><path d="M149.171,126.68c-1.4,2.894 -1.26,6.437 0.676,9.289c1.935,2.853 5.175,4.291 8.382,4.06c1.4,-2.895 1.26,-6.437 -0.676,-9.289c-1.935,-2.854 -5.175,-4.291 -8.382,-4.06Z" style="fill:#ececec;"/><path d="M163.56,156.175c-1.089,-3.026 -3.718,-5.404 -7.11,-6.016c-3.392,-0.612 -6.687,0.694 -8.766,3.147c1.089,3.028 3.718,5.405 7.11,6.017c3.392,0.613 6.687,-0.695 8.766,-3.148Z" style="fill:#ececec;"/><path d="M141.803,138.284c-2.006,2.514 -2.652,5.997 -1.396,9.208c1.256,3.211 4.097,5.331 7.277,5.814c2.004,-2.513 2.651,-5.999 1.395,-9.208c-1.256,-3.21 -4.097,-5.33 -7.276,-5.814Z" style="fill:#ececec;"/><path d="M67.788,57.131l31.258,0l0,1.082c-3.059,1.597 -5.158,4.805 -5.158,8.479l0,67.675c0,3.675 2.099,6.881 5.158,8.479l0,1.081l-31.258,0l0,-1.081c3.059,-1.598 5.159,-4.804 5.159,-8.479l0,-67.675c0,-3.674 -2.1,-6.882 -5.159,-8.479l0,-1.082Z" style="fill:#ececec;"/><path d="M102.014,57.131l31.258,0l0,1.082c-3.059,1.597 -5.159,4.805 -5.159,8.479l0,67.675c0,3.675 2.1,6.881 5.159,8.479l0,1.081l-31.258,0l0,-1.081c3.059,-1.598 5.158,-4.804 5.158,-8.479l0,-67.675c0,-3.674 -2.099,-6.882 -5.158,-8.479l0,-1.082Z" style="fill:#ececec;"/></g></g></svg>