<?xml version="1.0" encoding="UTF-8" standalone="no"?>
<!DOCTYPE svg PUBLIC "-//W3C//DTD SVG 1.1//EN" "http://www.w3.org/Graphics/SVG/1.1/DTD/svg11.dtd">
<!-- Created with Vectornator (http://vectornator.io/) -->
<svg height="100%" stroke-miterlimit="10" style="fill-rule:nonzero;clip-rule:evenodd;stroke-linecap:round;stroke-linejoin:round;" version="1.1" viewBox="0 0 3898.69 1335.04" width="100%" xml:space="preserve" xmlns="http://www.w3.org/2000/svg" xmlns:vectornator="http://vectornator.io" xmlns:xlink="http://www.w3.org/1999/xlink">
<defs>
<linearGradient gradientTransform="matrix(0.72167 0 0 -1.38567 671.275 943.43)" gradientUnits="userSpaceOnUse" id="LinearGradient" x1="243.89" x2="103.763" y1="380.413" y2="110.924">
<stop offset="0" stop-color="#00a0ff"/>
<stop offset="0.657" stop-color="#00a1ff"/>
<stop offset="1" stop-color="#00beff"/>
<stop offset="1" stop-color="#00d2ff"/>
<stop offset="1" stop-color="#00dfff"/>
<stop offset="1" stop-color="#00e3ff"/>
</linearGradient>
<linearGradient gradientTransform="matrix(1.1083 0 0 -0.90228 957.846 760.199)" gradientUnits="userSpaceOnUse" id="LinearGradient_2" x1="219.82" x2="-265.185" y1="104.456" y2="104.456">
<stop offset="0" stop-color="#ffe000"/>
<stop offset="1" stop-color="#ffbd00"/>
<stop offset="1" stop-color="#ffa500"/>
<stop offset="1" stop-color="#ff9c00"/>
</linearGradient>
<linearGradient gradientTransform="matrix(1.13894 0 0 -0.878 682.883 950.555)" gradientUnits="userSpaceOnUse" id="LinearGradient_3" x1="279.815" x2="-162.26" y1="222.803" y2="-116.045">
<stop offset="0" stop-color="#ff3a44"/>
<stop offset="1" stop-color="#c31162"/>
</linearGradient>
<linearGradient gradientTransform="matrix(1.13896 0 0 -0.878 683.104 668.247)" gradientUnits="userSpaceOnUse" id="LinearGradient_4" x1="-62.115" x2="134.984" y1="361.335" y2="210.03">
<stop offset="0" stop-color="#32a071"/>
<stop offset="1" stop-color="#2da771"/>
<stop offset="1" stop-color="#15cf74"/>
<stop offset="1" stop-color="#06e775"/>
<stop offset="1" stop-color="#00f076"/>
</linearGradient>
<linearGradient gradientTransform="matrix(1.38147 0 0 -0.72387 680.883 954.555)" gradientUnits="userSpaceOnUse" id="LinearGradient_5" x1="231.994" x2="-133.972" y1="187.683" y2="-4.388">
<stop offset="0" stop-color="#cc2e36"/>
<stop offset="1" stop-color="#9c0e4e"/>
</linearGradient>
<linearGradient gradientTransform="matrix(0.58803 0 0 -1.7006 671.275 945.655)" gradientUnits="userSpaceOnUse" id="LinearGradient_6" x1="62.549" x2="-13.255" y1="311.274" y2="91.69">
<stop offset="0" stop-color="#008de0"/>
<stop offset="0.657" stop-color="#008de0"/>
<stop offset="1" stop-color="#00a7e0"/>
<stop offset="1" stop-color="#00b8e0"/>
<stop offset="1" stop-color="#00c4e0"/>
<stop offset="1" stop-color="#00c7e0"/>
</linearGradient>
<linearGradient gradientTransform="matrix(1.19442 0 0 -0.83723 1049.65 761.699)" gradientUnits="userSpaceOnUse" id="LinearGradient_7" x1="127.112" x2="-322.924" y1="112.451" y2="112.451">
<stop offset="0" stop-color="#e0c500"/>
<stop offset="1" stop-color="#e0a600"/>
<stop offset="1" stop-color="#e09100"/>
<stop offset="1" stop-color="#e08900"/>
</linearGradient>
<linearGradient gradientTransform="matrix(1.1944 0 0 -0.83724 1049.65 668.247)" gradientUnits="userSpaceOnUse" id="LinearGradient_8" x1="127.114" x2="-322.928" y1="0.829" y2="0.829">
<stop offset="0" stop-color="#ffe840"/>
<stop offset="1" stop-color="#ffce40"/>
<stop offset="1" stop-color="#ffbc40"/>
<stop offset="1" stop-color="#ffb540"/>
</linearGradient>
<linearGradient gradientTransform="matrix(0.58722 0 0 -1.70294 671.275 424.988)" gradientUnits="userSpaceOnUse" id="LinearGradient_9" x1="62.249" x2="-13.13" y1="4.878" y2="-204.589">
<stop offset="0" stop-color="#40b8ff"/>
<stop offset="0.657" stop-color="#40b9ff"/>
<stop offset="1" stop-color="#40ceff"/>
<stop offset="1" stop-color="#40ddff"/>
<stop offset="1" stop-color="#40e7ff"/>
<stop offset="1" stop-color="#40eaff"/>
</linearGradient>
<linearGradient gradientTransform="matrix(1.38144 0 0 -0.72388 680.883 576.293)" gradientUnits="userSpaceOnUse" id="LinearGradient_10" x1="-49.894" x2="113.528" y1="230.7" y2="144.927">
<stop offset="0" stop-color="#65b895"/>
<stop offset="1" stop-color="#62bd95"/>
<stop offset="1" stop-color="#50db97"/>
<stop offset="1" stop-color="#44ed98"/>
<stop offset="1" stop-color="#40f498"/>
</linearGradient>
</defs>
<g id="Untitled" vectornator:layerName="Untitled">
<g opacity="1">
<path d="M3337.77 1112.54L560.923 1112.54C499.833 1112.54 449.849 1062.47 449.849 1001.28L449.849 333.761C449.849 272.571 499.832 222.507 560.923 222.507L3337.77 222.507C3398.86 222.507 3448.84 272.571 3448.84 333.761L3448.84 1001.28C3448.84 1062.47 3398.86 1112.54 3337.77 1112.54" fill="#000000" fill-rule="nonzero" opacity="1" stroke="none"/>
<path d="M3337.77 222.507L560.923 222.507C499.833 222.507 449.849 272.571 449.849 333.761L449.849 1001.28C449.849 1062.47 499.832 1112.54 560.923 1112.54L3337.77 1112.54C3398.86 1112.54 3448.84 1062.47 3448.84 1001.28L3448.84 333.761C3448.84 272.571 3398.86 222.507 3337.77 222.507M3337.77 240.307C3389.22 240.307 3431.07 282.237 3431.07 333.761L3431.07 1001.28C3431.07 1052.82 3389.22 1094.74 3337.77 1094.74L560.923 1094.74C509.483 1094.74 467.621 1052.81 467.621 1001.28L467.621 333.761C467.621 282.237 509.482 240.308 560.923 240.308L3337.77 240.308" fill="#a6a6a6" fill-rule="nonzero" opacity="1" stroke="none"/>
<path d="M1503.24 450.43C1503.24 469.072 1497.73 483.917 1486.69 494.991C1474.15 508.159 1457.81 514.748 1437.72 514.748C1418.48 514.748 1402.13 508.073 1388.67 494.704C1375.2 481.345 1368.47 464.779 1368.47 445.014C1368.47 425.24 1375.2 408.684 1388.67 395.314C1402.13 381.956 1418.48 375.271 1437.72 375.271C1447.27 375.271 1456.41 377.141 1465.08 380.87C1473.76 384.608 1480.72 389.57 1485.93 395.784L1474.21 407.526C1465.39 396.966 1453.24 391.69 1437.72 391.69C1423.69 391.69 1411.56 396.628 1401.32 406.51C1391.08 416.402 1385.96 429.23 1385.96 445.014C1385.96 460.799 1391.08 473.626 1401.32 483.519C1411.56 493.401 1423.69 498.338 1437.72 498.338C1452.6 498.338 1465.01 493.374 1474.95 483.432C1481.4 476.955 1485.13 467.952 1486.12 456.391L1437.72 456.391L1437.72 440.355L1502.31 440.355C1502.93 443.842 1503.24 447.188 1503.24 450.43" fill="#ffffff" fill-rule="nonzero" opacity="1" stroke="none"/>
<path d="M1503.24 450.43L1501.02 450.43C1501 468.647 1495.69 482.796 1485.12 493.418L1485.09 493.436L1485.08 493.454C1472.94 506.168 1457.34 512.496 1437.72 512.523C1419 512.496 1403.32 506.099 1390.24 493.131C1377.18 480.137 1370.72 464.274 1370.7 445.014C1370.72 425.745 1377.18 409.891 1390.24 396.906C1403.32 383.929 1419 377.523 1437.72 377.496C1446.98 377.496 1455.8 379.306 1464.2 382.912C1472.62 386.546 1479.27 391.308 1484.22 397.22L1485.93 395.784L1484.36 394.211L1472.64 405.961L1474.21 407.526L1475.92 406.102C1466.69 395.019 1453.72 389.432 1437.72 389.465C1423.17 389.447 1410.37 394.655 1399.78 404.912C1389.09 415.202 1383.72 428.752 1383.74 445.014C1383.72 461.277 1389.09 474.826 1399.78 485.117C1410.37 495.374 1423.17 500.581 1437.72 500.563C1453.1 500.59 1466.2 495.365 1476.52 485.005C1483.41 478.085 1487.31 468.5 1488.34 456.582L1488.55 454.166L1439.94 454.166L1439.94 442.58L1502.31 442.58L1502.31 440.355L1500.12 440.746C1500.73 444.12 1501.02 447.326 1501.02 450.43L1505.46 450.43C1505.46 447.048 1505.15 443.572 1504.5 439.957L1504.17 438.13L1435.5 438.13L1435.5 458.616L1486.12 458.616L1486.12 456.391L1483.91 456.2C1482.93 467.396 1479.37 475.827 1473.38 481.86C1463.83 491.385 1452.12 496.086 1437.72 496.113C1424.21 496.095 1412.75 491.436 1402.86 481.919C1393.08 472.436 1388.21 460.329 1388.18 445.014C1388.21 429.699 1393.08 417.592 1402.86 408.109C1412.75 398.592 1424.21 393.933 1437.72 393.915C1452.74 393.951 1464.09 398.922 1472.51 408.961L1474.07 410.821L1487.5 397.358L1488.94 395.916L1487.63 394.358C1482.17 387.841 1474.9 382.668 1465.96 378.828C1457 374.976 1447.55 373.046 1437.72 373.046C1417.97 373.029 1400.93 379.982 1387.1 393.742C1373.23 407.475 1366.24 424.737 1366.25 445.014C1366.24 465.282 1373.23 482.554 1387.11 496.295C1400.93 510.046 1417.97 516.991 1437.72 516.973C1458.29 516.991 1475.35 510.149 1488.3 496.529L1486.69 494.991L1488.26 496.565C1499.77 485.048 1505.48 469.49 1505.46 450.43L1503.24 450.43M1605.63 394.663L1544.93 394.663L1544.93 436.993L1599.67 436.993L1599.67 453.035L1544.93 453.035L1544.93 495.365L1605.63 495.365L1605.63 511.766L1527.82 511.766L1527.82 378.262L1605.63 378.262L1605.63 394.663" fill="#ffffff" fill-rule="nonzero" opacity="1" stroke="none"/>
<path d="M1605.63 394.663L1605.63 392.438L1542.71 392.438L1542.71 439.218L1597.45 439.218L1597.45 450.804L1542.71 450.81L1542.71 497.59L1603.41 497.59L1603.41 509.541L1530.04 509.541L1530.04 380.487L1603.41 380.487L1603.41 394.663L1605.63 394.663L1605.63 392.438L1605.63 394.663L1607.85 394.663L1607.85 376.037L1525.6 376.037L1525.6 513.991L1607.85 513.991L1607.85 493.14L1547.15 493.14L1547.15 455.26L1601.89 455.26L1601.89 434.768L1547.15 434.768L1547.15 396.888L1607.85 396.888L1607.85 394.663L1605.63 394.663M1677.86 511.767L1660.72 511.767L1660.72 394.662L1623.49 394.662L1623.49 378.261L1715.09 378.261L1715.09 394.662L1677.86 394.662L1677.86 511.765" fill="#ffffff" fill-rule="nonzero" opacity="1" stroke="none"/>
<path d="M1677.86 511.767L1677.86 509.541L1662.94 509.541L1662.94 392.438L1625.71 392.438L1625.71 380.488L1712.86 380.488L1712.86 392.438L1675.64 392.438L1675.64 511.766L1677.86 511.766L1677.86 509.541L1677.86 511.766L1680.08 511.766L1680.08 396.888L1717.31 396.888L1717.31 376.037L1621.27 376.037L1621.27 396.887L1658.5 396.887L1658.5 513.99L1680.08 513.99L1680.08 511.765L1677.86 511.765M1781.36 511.767L1781.36 378.261L1798.48 378.261L1798.48 511.765L1781.36 511.765" fill="#ffffff" fill-rule="nonzero" opacity="1" stroke="none"/>
<path d="M1781.36 511.767L1783.58 511.767L1783.58 380.487L1796.26 380.487L1796.26 509.541L1781.36 509.541L1781.36 511.766L1783.58 511.766L1781.36 511.766L1781.36 513.991L1800.7 513.991L1800.7 376.037L1779.14 376.037L1779.14 513.991L1781.36 513.991L1781.36 511.766M1874.45 511.767L1857.31 511.767L1857.31 394.662L1820.09 394.662L1820.09 378.261L1911.68 378.261L1911.68 394.662L1874.45 394.662L1874.45 511.765" fill="#ffffff" fill-rule="nonzero" opacity="1" stroke="none"/>
<path d="M1874.45 511.767L1874.45 509.541L1859.53 509.541L1859.53 392.438L1822.31 392.438L1822.31 380.488L1909.46 380.488L1909.46 392.438L1872.23 392.438L1872.23 511.766L1874.45 511.766L1874.45 509.541L1874.45 511.766L1876.67 511.766L1876.67 396.888L1913.9 396.888L1913.9 376.037L1817.86 376.037L1817.86 396.887L1855.09 396.887L1855.09 513.99L1876.67 513.99L1876.67 511.765L1874.45 511.765M1999.98 483.337C2009.85 493.34 2021.92 498.337 2036.19 498.337C2050.47 498.337 2062.55 493.34 2072.4 483.337C2082.27 473.333 2087.22 460.545 2087.22 445.014C2087.22 429.484 2082.27 416.696 2072.4 406.692C2062.55 396.688 2050.47 391.69 2036.19 391.69C2021.92 391.69 2009.85 396.688 1999.98 406.692C1990.13 416.696 1985.19 429.483 1985.19 445.014C1985.19 460.545 1990.13 473.333 1999.98 483.337ZM2085.07 494.513C2071.96 508.01 2055.67 514.748 2036.19 514.748C2016.7 514.748 2000.41 508.01 1987.34 494.513C1974.23 481.031 1967.7 464.528 1967.7 445.014C1967.7 425.5 1974.23 408.994 1987.34 395.515C2000.41 382.015 2016.7 375.271 2036.19 375.271C2055.56 375.271 2071.81 382.051 2084.98 395.602C2098.13 409.152 2104.7 425.622 2104.7 445.014C2104.7 464.528 2098.14 481.031 2085.07 494.513Z" fill="#ffffff" fill-rule="nonzero" opacity="1" stroke="none"/>
<path d="M1999.98 483.337L1998.4 484.901C2008.63 495.305 2021.4 500.59 2036.19 500.563C2050.98 500.59 2063.76 495.305 2073.98 484.901C2084.28 474.487 2089.46 461.015 2089.44 445.014C2089.45 429.014 2084.28 415.541 2073.98 405.127C2063.76 394.723 2050.98 389.439 2036.19 389.465C2021.4 389.439 2008.63 394.723 1998.4 405.127C1988.13 415.541 1982.94 429.014 1982.96 445.014C1982.94 461.014 1988.13 474.487 1998.4 484.901L1999.98 483.337L2001.56 481.772C1992.14 472.167 1987.43 460.085 1987.41 445.014C1987.43 429.944 1992.14 417.862 2001.56 408.256C2011.07 398.653 2022.43 393.942 2036.19 393.916C2049.95 393.942 2061.33 398.653 2070.82 408.256C2080.26 417.862 2084.97 429.944 2084.99 445.014C2084.97 460.084 2080.26 472.167 2070.82 481.772C2061.33 491.376 2049.95 496.086 2036.19 496.112C2022.43 496.086 2011.07 491.376 2001.56 481.772L1999.98 483.337ZM2085.07 494.513L2083.48 492.967C2070.74 506.039 2055.16 512.497 2036.19 512.523C2017.22 512.496 2001.64 506.039 1988.92 492.967L1988.86 492.897L1988.92 492.967C1976.21 479.85 1969.94 464.032 1969.92 445.014C1969.94 425.996 1976.21 410.178 1988.92 397.062C2001.64 383.989 2017.21 377.523 2036.19 377.497C2055.04 377.523 2070.58 384.016 2083.39 397.157C2096.15 410.334 2102.46 426.127 2102.48 445.014C2102.46 464.032 2096.16 479.85 2083.48 492.967L2085.07 494.513L2086.66 496.059C2100.13 482.206 2106.94 465.022 2106.93 445.014C2106.94 425.12 2100.1 407.971 2086.57 394.056C2073.04 380.086 2056.08 373.022 2036.19 373.046C2016.2 373.022 1999.19 380.053 1985.74 393.969L1985.74 393.959C1972.25 407.822 1965.46 425.006 1965.48 445.014C1965.46 465.022 1972.25 482.206 1985.74 496.068L1985.8 496.131L1985.74 496.059C1999.19 509.975 2016.2 516.991 2036.19 516.973C2056.18 516.991 2073.19 509.975 2086.66 496.059C2086.66 496.059 2085.07 494.513 2085.07 494.513ZM2128.74 511.767L2128.74 378.261L2149.58 378.261L2214.36 482.118L2215.1 482.118L2214.36 456.39L2214.36 378.261L2231.5 378.261L2231.5 511.765L2213.62 511.765L2145.85 402.875L2145.11 402.875L2145.85 428.612L2145.85 511.765L2128.74 511.765" fill="#ffffff" fill-rule="nonzero" opacity="1" stroke="none"/>
<path d="M2128.74 511.767L2130.96 511.767L2130.96 380.487L2148.35 380.487L2213.13 484.344L2217.38 484.344L2216.58 456.358L2216.58 380.488L2229.28 380.488L2229.28 509.541L2214.86 509.541L2147.09 400.651L2142.83 400.651L2143.63 428.649L2143.63 509.541L2128.74 509.541L2128.74 511.766L2130.96 511.766L2128.74 511.766L2128.74 513.991L2148.07 513.991L2148.07 428.578L2147.34 402.816L2145.11 402.876L2145.11 405.101L2145.85 405.101L2145.85 402.876L2143.97 404.059L2212.39 513.991L2233.72 513.991L2233.72 376.037L2212.14 376.037L2212.14 456.417L2212.88 482.179L2215.1 482.119L2215.1 479.894L2214.36 479.894L2214.36 482.119L2216.25 480.938L2150.81 376.037L2126.52 376.037L2126.52 513.991L2128.74 513.991L2128.74 511.766M2825.41 890.028L2866.86 890.028L2866.86 611.868L2825.41 611.868L2825.41 890.028ZM3198.77 712.068L3151.26 832.664L3149.83 832.664L3100.52 712.067L3055.86 712.067L3129.82 880.623L3087.65 974.381L3130.91 974.381L3244.87 712.067L3198.77 712.068ZM2963.7 858.435C2950.1 858.435 2931.17 851.637 2931.17 834.811C2931.17 813.341 2954.77 805.111 2975.11 805.111C2993.35 805.111 3001.91 809.047 3012.99 814.421C3009.77 840.182 2987.62 858.435 2963.7 858.435ZM2968.69 705.982C2938.68 705.982 2907.6 719.227 2894.74 748.572L2931.53 763.956C2939.39 748.572 2954.03 743.556 2969.41 743.556C2990.84 743.556 3012.64 756.446 3012.99 779.349L3012.99 782.209C3005.48 777.914 2989.42 771.474 2969.76 771.474C2930.11 771.474 2889.72 793.298 2889.72 834.097C2889.72 871.316 2922.24 895.295 2958.68 895.295C2986.56 895.295 3001.91 882.77 3011.57 868.1L3012.99 868.1L3012.99 889.568L3053 889.568L3053 782.92C3053 733.544 3016.21 705.982 2968.69 705.982ZM2712.51 745.928L2653.56 745.928L2653.56 650.582L2712.51 650.582C2743.5 650.582 2761.1 676.282 2761.1 698.254C2761.1 719.81 2743.5 745.928 2712.51 745.928ZM2711.45 611.868L2612.12 611.868L2612.12 890.028L2653.55 890.028L2653.55 784.642L2711.45 784.642C2757.39 784.642 2802.55 751.326 2802.55 698.254C2802.55 645.184 2757.39 611.868 2711.45 611.868ZM2169.83 858.486C2141.19 858.486 2117.22 834.471 2117.22 801.486C2117.22 768.155 2141.19 743.774 2169.83 743.774C2198.1 743.774 2220.29 768.154 2220.29 801.486C2220.29 834.471 2198.1 858.486 2169.83 858.486L2169.83 858.486ZM2217.43 727.643L2215.99 727.643C2206.69 716.533 2188.79 706.496 2166.25 706.496C2119 706.496 2075.7 748.076 2075.7 801.486C2075.7 854.541 2119 895.765 2166.25 895.765C2188.79 895.765 2206.69 885.725 2215.99 874.261L2217.43 874.261L2217.43 887.881C2217.43 924.092 2198.1 943.448 2166.97 943.448C2141.56 943.448 2125.81 925.16 2119.36 909.749L2083.22 924.804C2093.6 949.896 2121.16 980.727 2166.97 980.727C2215.64 980.727 2256.8 952.043 2256.8 882.145L2256.8 712.232L2217.43 712.232L2217.43 727.643ZM2285.42 890.028L2326.94 890.028L2326.94 611.858L2285.42 611.858L2285.42 890.028ZM2388.14 798.262C2387.06 761.695 2416.41 743.06 2437.53 743.06C2454 743.06 2467.95 751.3 2472.59 763.14L2388.14 798.262ZM2516.98 766.719C2509.11 745.563 2485.12 706.496 2436.09 706.496C2387.42 706.496 2346.98 744.851 2346.98 801.13C2346.98 854.185 2387.06 895.765 2440.74 895.765C2484.06 895.765 2509.11 869.237 2519.49 853.826L2487.28 832.314C2476.55 848.09 2461.86 858.486 2440.74 858.486C2419.63 858.486 2404.6 848.804 2394.93 829.811L2521.27 777.471L2516.98 766.719ZM1510.47 735.533L1510.47 775.68L1606.38 775.68C1603.52 798.262 1596 814.75 1584.55 826.222C1570.59 840.207 1548.76 855.618 1510.47 855.618C1451.41 855.618 1405.25 807.943 1405.25 748.796C1405.25 689.65 1451.41 641.969 1510.47 641.969C1542.32 641.969 1565.58 654.518 1582.76 670.649L1611.03 642.333C1587.06 619.386 1555.2 601.822 1510.47 601.822C1429.58 601.822 1361.58 667.782 1361.58 748.796C1361.58 829.811 1429.58 895.765 1510.47 895.765C1554.13 895.765 1587.06 881.433 1612.82 854.541C1639.3 828.013 1647.54 790.735 1647.54 760.627C1647.54 751.3 1646.83 742.704 1645.39 735.533L1510.47 735.533ZM1756.58 858.486C1727.95 858.486 1703.25 834.826 1703.25 801.13C1703.25 767.075 1727.95 743.774 1756.58 743.774C1785.21 743.774 1809.9 767.075 1809.9 801.13C1809.9 834.827 1785.21 858.486 1756.58 858.486ZM1756.58 706.496C1704.32 706.496 1661.73 746.284 1661.73 801.13C1661.73 855.618 1704.32 895.765 1756.58 895.765C1808.83 895.765 1851.42 855.618 1851.42 801.13C1851.42 746.284 1808.83 706.496 1756.58 706.496ZM1963.47 858.486C1934.85 858.486 1910.15 834.826 1910.15 801.13C1910.15 767.075 1934.85 743.774 1963.47 743.774C1992.1 743.774 2016.8 767.075 2016.8 801.13C2016.8 834.827 1992.1 858.486 1963.47 858.486L1963.47 858.486ZM1963.47 706.496C1911.22 706.496 1868.64 746.284 1868.64 801.13C1868.64 855.618 1911.22 895.765 1963.47 895.765C2015.72 895.765 2058.31 855.618 2058.31 801.13C2058.31 746.284 2015.72 706.496 1963.47 706.496L1963.47 706.496Z" fill="#ffffff" fill-rule="nonzero" opacity="1" stroke="none"/>
<path d="M683.295 391.864C675.84 398.601 671.39 409.838 671.39 424.754L671.39 421.382L671.39 913.592L671.39 910.35C671.39 924.125 675.207 934.763 681.671 941.614L683.321 943.196L683.321 943.203C688.553 947.932 695.262 950.443 702.951 950.435C710.464 950.435 718.917 948.036 727.838 942.97L1050.29 759.462L1161.05 696.421C1175.12 688.417 1183.01 678.091 1184.33 667.573L1184.33 667.53C1183.01 656.988 1175.12 646.67 1161.05 638.665L1050.28 575.632L727.839 392.124C718.899 387.049 710.44 384.641 702.907 384.641C695.227 384.641 688.527 387.144 683.297 391.864L683.295 391.864Z" fill="#00c1ff" fill-rule="nonzero" opacity="1" stroke="none"/>
<path d="M683.322 943.196L681.671 941.614C675.207 934.764 671.39 924.125 671.39 910.35L671.39 913.592L671.39 421.504L671.39 424.754C671.39 409.838 675.84 398.601 683.295 391.864L958.532 667.539L683.322 943.196" fill="url(#LinearGradient)" fill-rule="nonzero" opacity="1" stroke="none"/>
<path d="M1050.29 759.461L958.532 667.539L1050.28 575.632L1161.05 638.664C1175.12 646.67 1183.01 656.987 1184.33 667.53L1184.33 667.572C1183.01 678.09 1175.12 688.417 1161.05 696.42L1050.29 759.46" fill="url(#LinearGradient_2)" fill-rule="nonzero" opacity="1" stroke="none"/>
<path d="M702.951 950.435C695.263 950.442 688.554 947.93 683.323 943.202L683.323 943.195L958.533 667.538L1050.29 759.46L727.838 942.969C718.917 948.036 710.464 950.435 702.951 950.435" fill="url(#LinearGradient_3)" fill-rule="nonzero" opacity="1" stroke="none"/>
<path d="M958.532 667.54L683.294 391.865C688.526 387.145 695.226 384.642 702.905 384.642C710.438 384.642 718.898 387.049 727.837 392.125L1050.28 575.633L958.531 667.54" fill="url(#LinearGradient_4)" fill-rule="nonzero" opacity="1" stroke="none"/>
<path d="M702.96 953.694C695.272 953.694 688.554 951.182 683.322 946.454L683.313 946.462C683.292 946.44 683.269 946.42 683.244 946.402L681.813 945.002C681.768 944.958 681.726 944.907 681.673 944.856L683.323 943.203C688.555 947.931 695.263 950.443 702.953 950.434C710.465 950.434 718.918 948.036 727.839 942.969L1050.29 759.461L1052.36 761.531L1050.27 762.721L727.838 946.219C719.708 950.835 711.975 953.242 704.99 953.643C704.314 953.676 703.637 953.693 702.96 953.693" fill="url(#LinearGradient_5)" fill-rule="nonzero" opacity="1" stroke="none"/>
<path d="M681.671 944.856C675.207 938.006 671.39 927.376 671.39 913.592L671.39 910.35C671.39 924.125 675.207 934.763 681.671 941.614L683.321 943.196L681.671 944.856" fill="url(#LinearGradient_6)" fill-rule="nonzero" opacity="1" stroke="none"/>
<path d="M1052.36 761.53L1050.29 759.46L1161.05 696.42C1175.12 688.417 1183.01 678.09 1184.33 667.572C1184.33 671.432 1183.47 675.291 1181.77 679.047C1178.32 686.617 1171.41 693.77 1161.05 699.671L1052.36 761.531" fill="url(#LinearGradient_7)" fill-rule="nonzero" opacity="1" stroke="none"/>
<path d="M1184.33 667.531C1183.01 656.988 1175.12 646.671 1161.05 638.665L1050.28 575.633L1052.35 573.563L1052.36 573.563L1161.05 635.423C1176.56 644.254 1184.33 655.891 1184.33 667.531" fill="url(#LinearGradient_8)" fill-rule="nonzero" opacity="1" stroke="none"/>
<path d="M671.39 424.754L671.39 421.354C671.39 420.128 671.423 418.929 671.486 417.765L671.486 417.712C671.486 417.696 671.486 417.679 671.492 417.661L671.492 417.53C672.161 405.665 675.84 396.41 681.671 390.23L683.295 391.863C675.84 398.601 671.39 409.838 671.39 424.754" fill="url(#LinearGradient_9)" fill-rule="nonzero" opacity="1" stroke="none"/>
<path d="M1050.28 575.633L727.838 392.123C718.899 387.048 710.44 384.641 702.907 384.641C695.227 384.641 688.527 387.144 683.296 391.864L681.672 390.23C682.179 389.692 682.706 389.174 683.252 388.675C683.269 388.657 683.296 388.639 683.313 388.622C688.503 383.938 695.132 381.435 702.743 381.39L702.907 381.39C710.44 381.39 718.899 383.798 727.838 388.875L1052.36 573.556L1052.35 573.563L1050.28 575.633" fill="url(#LinearGradient_10)" fill-rule="nonzero" opacity="1" stroke="none"/>
</g>
</g>
</svg>
