<svg width="923" height="668" viewBox="0 0 923 668" fill="none" xmlns="http://www.w3.org/2000/svg">
<path d="M426.18 21.74H416.52C310.36 21.74 223.98 108.12 223.98 214.28V223.95C223.98 225.19 224.99 226.2 226.23 226.2H374.4C375.64 226.2 376.65 225.19 376.65 223.95V204.62C376.65 203.38 375.64 202.37 374.4 202.37H248.22C254.09 118.49 320.72 51.85 404.6 45.99V170.62C404.6 171.86 405.61 172.87 406.85 172.87H426.18C427.42 172.87 428.43 171.86 428.43 170.62V23.99C428.43 22.75 427.42 21.74 426.18 21.74Z" fill="url(#paint0_linear_1024:123)"/>
<path d="M461 0H451.33C450.09 0 449.08 1.01 449.08 2.25V199.07C449.08 200.31 450.09 201.32 451.33 201.32H470.66C471.9 201.32 472.91 200.31 472.91 199.07V24.13C592.45 30.13 689.63 127.31 695.63 246.85H501.38L515.72 219.71C516.24 218.73 515.96 217.51 515.07 216.85C514.67 216.56 514.2 216.41 513.74 216.41C513.16 216.41 512.59 216.64 512.15 217.07L472.33 256.88C471.91 257.3 471.67 257.87 471.67 258.47C471.67 259.07 471.91 259.64 472.33 260.06L512.15 299.87C512.59 300.3 513.17 300.53 513.74 300.53C514.21 300.53 514.67 300.39 515.07 300.09C515.96 299.44 516.25 298.22 515.73 297.24L501.92 270.66H717.51C718.75 270.66 719.76 269.65 719.76 268.41V258.74C719.76 116.08 603.68 0 461 0Z" fill="#17E26E"/>
<path d="M470.66 314.49H451.33C450.09 314.49 449.08 315.5 449.08 316.74V493.39C329.55 487.39 232.37 390.21 226.36 270.68H418.34L406.22 297.37C405.77 298.36 406.09 299.53 406.99 300.15C407.37 300.42 407.82 300.55 408.27 300.55C408.85 300.55 409.42 300.32 409.86 299.89L449.68 260.08C450.1 259.66 450.34 259.09 450.34 258.49C450.34 257.89 450.1 257.32 449.68 256.9L409.86 217.09C409.42 216.66 408.84 216.43 408.27 216.43C407.82 216.43 407.37 216.57 406.98 216.84C406.09 217.47 405.77 218.64 406.23 219.63L418.88 246.86H204.49C203.25 246.86 202.24 247.87 202.24 249.11V258.77C202.24 401.45 318.32 517.53 461 517.53H470.66C471.9 517.53 472.91 516.52 472.91 515.28V316.74C472.91 315.5 471.9 314.49 470.66 314.49Z" fill="#03C7F4"/>
<path d="M0 573.72H27.12V666.32H42.12V573.72H69.12V560.28H0V573.72Z" fill="white"/>
<path d="M209.96 643.32C206.37 637.73 202.74 632.1 199.06 626.42C201.09 625.92 203.1 625.14 205.09 624.08C208.21 622.44 211.03 620.13 213.46 617.23C215.88 614.37 217.88 610.9 219.41 606.92C220.95 602.92 221.73 598.43 221.73 593.56C221.73 586.72 220.09 580.67 216.87 575.57C213.65 570.46 209.39 566.56 204.21 564C201.43 562.58 198.37 561.6 195.1 561.06C191.94 560.54 188.63 560.29 185.27 560.29H146.83V666.33H161.83V573.73H185.26C187.69 573.73 190.02 573.94 192.16 574.34C194.2 574.72 196.07 575.36 197.7 576.24C200.45 577.79 202.66 580.03 204.27 582.9C205.89 585.79 206.71 589.48 206.71 593.83C206.71 596.12 206.43 598.4 205.86 600.59C205.29 602.78 204.52 604.75 203.56 606.45C202.62 608.11 201.48 609.57 200.18 610.78C198.95 611.9 197.6 612.7 196.18 613.14C194.2 613.72 192.38 614.08 190.76 614.17C188.97 614.28 186.58 614.34 183.55 614.34H181.35V626.21L181.69 626.74C185.77 633.22 189.84 639.68 193.89 646.1C197.94 652.52 202.02 658.91 206.1 665.31L206.75 666.32H224.6L222.45 662.94C218.3 656.36 214.13 649.83 209.96 643.32Z" fill="white"/>
<path d="M316.63 560.28H301.63V666.32H316.63V560.28Z" fill="white"/>
<path d="M433.18 638.42C433.18 639.71 433.11 640.79 432.93 641.74C432.31 645.69 430.37 648.64 427 650.76C421.71 654.07 415.13 655.35 407.59 652.94C405.15 652.17 402.82 651.09 400.66 649.74L398.73 648.53L391.63 660.85L393.44 661.97C396.61 663.93 400.01 665.42 403.57 666.4C407.13 667.37 410.72 667.87 414.25 667.87C418.59 667.87 422.65 667.35 426.34 666.32C430.05 665.28 433.41 663.75 436.32 661.78C439.27 659.8 441.74 657.37 443.67 654.58C445.61 651.78 446.94 648.56 447.62 645.03C447.91 643.58 448.11 641.94 448.19 640.17C448.3 638.36 448.33 636.5 448.33 634.6V560.27H433.2V638.42H433.18Z" fill="white"/>
<path d="M570.11 605.44L541.96 560.28H524.28L561.69 620.32L561.93 619.96V666.32H576.93V620.48L614.31 560.28H596.87L570.11 605.44Z" fill="white"/>
<path d="M682.33 666.32H698.69L731.35 589.03L763.69 666.32H780.03L731.37 552.13L682.33 666.32Z" fill="white"/>
<path d="M919.89 624.79C918.48 621.58 916.58 618.76 914.22 616.41C911.9 614.09 909.23 612.09 906.28 610.47C903.46 608.91 900.46 607.49 897.37 606.27L885.78 601.63C883.69 600.83 881.75 599.95 879.98 598.99C878.26 598.07 876.76 597.01 875.52 595.83C874.33 594.7 873.36 593.38 872.64 591.93C871.96 590.55 871.61 588.87 871.61 586.96C871.61 584.88 872.02 583.01 872.86 581.25C873.71 579.47 874.9 577.9 876.39 576.57C877.89 575.22 879.66 574.17 881.65 573.46C883.66 572.74 885.93 572.37 888.38 572.37C892.32 572.37 895.79 573.01 898.69 574.26C901.64 575.54 904.41 577.39 906.92 579.78L908.59 581.37L917.93 570.64L916.27 569.2C912.59 565.98 908.57 563.43 904.34 561.63C900.06 559.79 894.7 558.86 888.38 558.86C883.92 558.86 879.71 559.59 875.87 561.04C872.03 562.49 868.65 564.48 865.83 566.95C862.96 569.44 860.67 572.45 859.01 575.86C857.33 579.32 856.47 583.11 856.47 587.09C856.47 591.08 857.12 594.64 858.42 597.64C859.68 600.59 861.41 603.24 863.53 605.51C865.62 607.76 868.08 609.68 870.86 611.23C873.52 612.72 876.34 614.06 879.23 615.18L891.18 619.79C893.44 620.67 895.59 621.64 897.65 622.69C899.59 623.69 901.27 624.85 902.65 626.18C903.99 627.45 905.08 628.95 905.9 630.6C906.67 632.2 907.07 634.14 907.07 636.37C907.07 638.88 906.61 641.25 905.71 643.4C904.8 645.58 903.51 647.49 901.88 649.08C900.25 650.67 898.21 651.97 895.84 652.92C893.46 653.88 890.75 654.36 887.78 654.36C882.72 654.36 878.04 653.25 873.88 651.08C869.66 648.87 866.13 645.93 863.35 642.3L861.95 640.48L850.93 649.73L852.27 651.4C856.74 656.96 862.08 661.12 868.14 663.74C874.14 666.34 880.66 667.66 887.51 667.66C892.23 667.66 896.74 666.87 900.92 665.32C905.09 663.77 908.79 661.55 911.94 658.7C915.08 655.85 917.57 652.48 919.32 648.69C921.11 644.87 922.01 640.68 922.01 636.24C922 631.88 921.29 628.03 919.89 624.79Z" fill="white"/>
<path d="M548.04 315.04H518.81V344.27H548.04V315.04Z" fill="url(#paint1_linear_1024:123)"/>
<path d="M577.27 344.26H548.04V373.49H577.27V344.26Z" fill="url(#paint2_linear_1024:123)"/>
<path d="M548.04 373.49H518.81V402.72H548.04V373.49Z" fill="url(#paint3_linear_1024:123)"/>
<path d="M606.73 432.19H577.5V461.42H606.73V432.19Z" fill="url(#paint4_linear_1024:123)"/>
<path d="M635.41 403.52H606.18V432.75H635.41V403.52Z" fill="url(#paint5_linear_1024:123)"/>
<path d="M635.41 344.26H606.18V373.49H635.41V344.26Z" fill="url(#paint6_linear_1024:123)"/>
<path d="M664.63 315.04H635.4V344.27H664.63V315.04Z" fill="url(#paint7_linear_1024:123)"/>
<path d="M693.86 344.26H664.63V373.49H693.86V344.26Z" fill="url(#paint8_linear_1024:123)"/>
<defs>
<linearGradient id="paint0_linear_1024:123" x1="152.254" y1="-49.9873" x2="714.704" y2="512.463" gradientUnits="userSpaceOnUse">
<stop stop-color="#FFEE25"/>
<stop offset="0.0178" stop-color="#FFE920"/>
<stop offset="0.102" stop-color="#FED60E"/>
<stop offset="0.1886" stop-color="#FDCB04"/>
<stop offset="0.2809" stop-color="#FDC700"/>
<stop offset="0.6685" stop-color="#F08F34"/>
<stop offset="0.8876" stop-color="#E86031"/>
<stop offset="1" stop-color="#E2312D"/>
</linearGradient>
<linearGradient id="paint1_linear_1024:123" x1="213.111" y1="9.3385" x2="696.064" y2="492.291" gradientUnits="userSpaceOnUse">
<stop stop-color="#FFEE25"/>
<stop offset="0.0178" stop-color="#FFE920"/>
<stop offset="0.102" stop-color="#FED60E"/>
<stop offset="0.1886" stop-color="#FDCB04"/>
<stop offset="0.2809" stop-color="#FDC700"/>
<stop offset="0.6685" stop-color="#F08F34"/>
<stop offset="0.8876" stop-color="#E86031"/>
<stop offset="1" stop-color="#E2312D"/>
</linearGradient>
<linearGradient id="paint2_linear_1024:123" x1="213.111" y1="9.33843" x2="696.064" y2="492.291" gradientUnits="userSpaceOnUse">
<stop stop-color="#FFEE25"/>
<stop offset="0.0178" stop-color="#FFE920"/>
<stop offset="0.102" stop-color="#FED60E"/>
<stop offset="0.1886" stop-color="#FDCB04"/>
<stop offset="0.2809" stop-color="#FDC700"/>
<stop offset="0.6685" stop-color="#F08F34"/>
<stop offset="0.8876" stop-color="#E86031"/>
<stop offset="1" stop-color="#E2312D"/>
</linearGradient>
<linearGradient id="paint3_linear_1024:123" x1="183.883" y1="38.5679" x2="666.835" y2="521.52" gradientUnits="userSpaceOnUse">
<stop stop-color="#FFEE25"/>
<stop offset="0.0178" stop-color="#FFE920"/>
<stop offset="0.102" stop-color="#FED60E"/>
<stop offset="0.1886" stop-color="#FDCB04"/>
<stop offset="0.2809" stop-color="#FDC700"/>
<stop offset="0.6685" stop-color="#F08F34"/>
<stop offset="0.8876" stop-color="#E86031"/>
<stop offset="1" stop-color="#E2312D"/>
</linearGradient>
<linearGradient id="paint4_linear_1024:123" x1="183.883" y1="38.5676" x2="666.835" y2="521.52" gradientUnits="userSpaceOnUse">
<stop stop-color="#FFEE25"/>
<stop offset="0.0178" stop-color="#FFE920"/>
<stop offset="0.102" stop-color="#FED60E"/>
<stop offset="0.1886" stop-color="#FDCB04"/>
<stop offset="0.2809" stop-color="#FDC700"/>
<stop offset="0.6685" stop-color="#F08F34"/>
<stop offset="0.8876" stop-color="#E86031"/>
<stop offset="1" stop-color="#E2312D"/>
</linearGradient>
<linearGradient id="paint5_linear_1024:123" x1="212.555" y1="9.89354" x2="695.509" y2="492.846" gradientUnits="userSpaceOnUse">
<stop stop-color="#FFEE25"/>
<stop offset="0.0178" stop-color="#FFE920"/>
<stop offset="0.102" stop-color="#FED60E"/>
<stop offset="0.1886" stop-color="#FDCB04"/>
<stop offset="0.2809" stop-color="#FDC700"/>
<stop offset="0.6685" stop-color="#F08F34"/>
<stop offset="0.8876" stop-color="#E86031"/>
<stop offset="1" stop-color="#E2312D"/>
</linearGradient>
<linearGradient id="paint6_linear_1024:123" x1="242.181" y1="-19.7312" x2="725.134" y2="463.221" gradientUnits="userSpaceOnUse">
<stop stop-color="#FFEE25"/>
<stop offset="0.0178" stop-color="#FFE920"/>
<stop offset="0.102" stop-color="#FED60E"/>
<stop offset="0.1886" stop-color="#FDCB04"/>
<stop offset="0.2809" stop-color="#FDC700"/>
<stop offset="0.6685" stop-color="#F08F34"/>
<stop offset="0.8876" stop-color="#E86031"/>
<stop offset="1" stop-color="#E2312D"/>
</linearGradient>
<linearGradient id="paint7_linear_1024:123" x1="271.409" y1="-48.9596" x2="754.362" y2="433.992" gradientUnits="userSpaceOnUse">
<stop stop-color="#FFEE25"/>
<stop offset="0.0178" stop-color="#FFE920"/>
<stop offset="0.102" stop-color="#FED60E"/>
<stop offset="0.1886" stop-color="#FDCB04"/>
<stop offset="0.2809" stop-color="#FDC700"/>
<stop offset="0.6685" stop-color="#F08F34"/>
<stop offset="0.8876" stop-color="#E86031"/>
<stop offset="1" stop-color="#E2312D"/>
</linearGradient>
<linearGradient id="paint8_linear_1024:123" x1="271.409" y1="-48.9597" x2="754.362" y2="433.992" gradientUnits="userSpaceOnUse">
<stop stop-color="#FFEE25"/>
<stop offset="0.0178" stop-color="#FFE920"/>
<stop offset="0.102" stop-color="#FED60E"/>
<stop offset="0.1886" stop-color="#FDCB04"/>
<stop offset="0.2809" stop-color="#FDC700"/>
<stop offset="0.6685" stop-color="#F08F34"/>
<stop offset="0.8876" stop-color="#E86031"/>
<stop offset="1" stop-color="#E2312D"/>
</linearGradient>
</defs>
</svg>
