<svg width="577" height="124" viewBox="0 0 577 124" fill="none" xmlns="http://www.w3.org/2000/svg">
<rect width="577" height="124" fill="white"/>
<path d="M154 46.9046H165.183V85.0865H171.368V46.9046H182.502V41.3622H154V46.9046Z" fill="black"/>
<path d="M240.578 75.6036C239.098 73.2995 237.601 70.9769 236.084 68.6337C236.921 68.4295 237.75 68.1058 238.57 67.6698C239.857 66.9928 241.02 66.0404 242.022 64.8447C243.019 63.665 243.844 62.2352 244.475 60.5943C245.11 58.9442 245.432 57.0921 245.432 55.084C245.432 52.2635 244.755 49.7688 243.428 47.6666C242.1 45.5598 240.343 43.951 238.207 42.8953C237.061 42.3101 235.799 41.9061 234.451 41.6835C233.148 41.4678 231.783 41.3645 230.397 41.3645H214.546V85.0912H220.732V46.9069H230.393C231.395 46.9069 232.356 46.9941 233.238 47.1594C234.079 47.3154 234.851 47.5794 235.523 47.942C236.657 48.5823 237.568 49.5049 238.232 50.6891C238.9 51.8802 239.238 53.4018 239.238 55.1965C239.238 56.1397 239.123 57.0807 238.888 57.9826C238.652 58.8868 238.335 59.6993 237.939 60.3993C237.552 61.0855 237.082 61.6868 236.545 62.1848C236.038 62.6484 235.481 62.9765 234.896 63.1578C234.079 63.3988 233.329 63.5457 232.661 63.5824C231.923 63.6283 230.937 63.6535 229.688 63.6535H228.781V68.5488L228.921 68.7668C230.603 71.4382 232.282 74.1027 233.952 76.7488C235.622 79.3973 237.304 82.0319 238.987 84.6712L239.255 85.0866H246.615L245.729 83.6935C244.017 80.9808 242.298 78.2888 240.578 75.6036Z" fill="black"/>
<path d="M284.564 41.3622H278.379V85.0865H284.564V41.3622Z" fill="black"/>
<path d="M332.624 73.584C332.624 74.1142 332.595 74.5594 332.521 74.9519C332.265 76.5813 331.465 77.7977 330.076 78.6721C327.894 80.0353 325.181 80.5632 322.072 79.5694C321.066 79.2527 320.105 78.8075 319.214 78.2498L318.419 77.7518L315.491 82.8329L316.237 83.2942C317.544 84.102 318.946 84.7171 320.414 85.121C321.882 85.5203 323.363 85.7269 324.818 85.7269C326.608 85.7269 328.282 85.5135 329.804 85.0866C331.333 84.6597 332.719 84.0286 333.919 83.2162C335.135 82.3992 336.154 81.3962 336.95 80.2464C337.75 79.0921 338.298 77.7632 338.579 76.3082C338.698 75.7115 338.78 75.0345 338.814 74.3047C338.859 73.5588 338.871 72.7923 338.871 72.0074V41.3577H332.632V73.584H332.624Z" fill="black"/>
<path d="M389.088 59.9838L377.48 41.3622H370.189L385.616 66.1184L385.715 65.9715V85.0865H391.9V66.1849L407.315 41.3622H400.123L389.088 59.9838Z" fill="black"/>
<path d="M435.362 85.0865H442.11L455.577 53.2158L468.913 85.0865H475.649L455.584 38L435.362 85.0865Z" fill="black"/>
<path d="M533.322 67.9634C532.742 66.6392 531.957 65.4757 530.984 64.5072C530.027 63.5502 528.927 62.7262 527.709 62.0584C526.547 61.4135 525.31 60.8283 524.037 60.3257L519.256 58.4116C518.396 58.0834 517.595 57.7185 516.865 57.3238C516.156 56.9451 515.536 56.5068 515.026 56.0203C514.535 55.5544 514.136 55.0105 513.838 54.4115C513.558 53.8423 513.413 53.1515 513.413 52.362C513.413 51.506 513.583 50.7349 513.929 50.0073C514.278 49.2752 514.769 48.628 515.385 48.0795C516.004 47.5219 516.734 47.0881 517.553 46.7966C518.382 46.4983 519.318 46.3468 520.328 46.3468C521.953 46.3468 523.385 46.6108 524.581 47.1271C525.797 47.655 526.94 48.4169 527.973 49.4015L528.663 50.0578L532.514 45.6331L531.828 45.0387C530.311 43.7121 528.654 42.661 526.91 41.9175C525.145 41.1601 522.935 40.7769 520.328 40.7769C518.49 40.7769 516.755 41.0775 515.171 41.6742C513.588 42.2732 512.192 43.0925 511.031 44.1115C509.847 45.1397 508.901 46.379 508.217 47.7858C507.524 49.2133 507.171 50.7762 507.171 52.4171C507.171 54.0626 507.439 55.5291 507.974 56.7661C508.495 57.9825 509.206 59.0772 510.081 60.0112C510.944 60.9407 511.958 61.7325 513.103 62.3705C514.2 62.9856 515.364 63.5387 516.555 64L521.482 65.9002C522.414 66.2628 523.302 66.6644 524.151 67.0959C524.95 67.509 525.643 67.9864 526.212 68.5349C526.765 69.0604 527.215 69.6778 527.553 70.3571C527.872 71.0181 528.035 71.819 528.035 72.737C528.035 73.7721 527.846 74.7498 527.475 75.6356C527.1 76.5353 526.568 77.3224 525.896 77.9788C525.223 78.6352 524.383 79.1699 523.406 79.5624C522.423 79.9571 521.306 80.1568 520.08 80.1568C517.994 80.1568 516.064 79.6978 514.349 78.8027C512.61 77.8916 511.155 76.6799 510.007 75.1835L509.429 74.433L504.885 78.2473L505.438 78.9358C507.281 81.2285 509.484 82.9429 511.983 84.0238C514.457 85.0956 517.145 85.6395 519.97 85.6395C521.916 85.6395 523.775 85.3136 525.499 84.6756C527.22 84.0353 528.744 83.1196 530.043 81.9446C531.339 80.7695 532.365 79.3811 533.086 77.8182C533.825 76.2415 534.197 74.5157 534.197 72.6843C534.192 70.885 533.898 69.2991 533.322 67.9634Z" fill="black"/>
<path d="M53.7628 8.83087H51.6162C28.026 8.83087 8.83105 28.0258 8.83105 51.6161V53.765C8.83105 54.0405 9.0554 54.2649 9.33095 54.2649H42.2565C42.5321 54.2649 42.7566 54.0405 42.7566 53.765V49.4695C42.7566 49.1939 42.5321 48.9696 42.2565 48.9696H14.2175C15.5219 30.3302 30.3281 15.5218 48.9674 14.2197V41.9143C48.9674 42.1898 49.1919 42.4142 49.4674 42.4142H53.7628C54.0383 42.4142 54.2628 42.1898 54.2628 41.9143V9.33089C54.2628 9.05534 54.0383 8.83087 53.7628 8.83087Z" fill="url(#paint0_linear_527:22)"/>
<path d="M61.5008 4H59.3513C59.0758 4 58.8514 4.22447 58.8514 4.50002V48.2362C58.8514 48.5117 59.0758 48.7362 59.3513 48.7362H63.6466C63.9224 48.7362 64.1462 48.5117 64.1462 48.2362V9.36207C90.7105 10.6953 112.305 32.2901 113.639 58.8536H70.4735L73.6593 52.8227C73.7756 52.605 73.7125 52.3339 73.5159 52.1872C73.4268 52.1228 73.3217 52.0894 73.2203 52.0894C73.0904 52.0894 72.9643 52.1405 72.8666 52.2361L64.0176 61.0825C63.9248 61.1758 63.8717 61.3025 63.8717 61.4358C63.8717 61.5691 63.9248 61.6958 64.0176 61.7891L72.8666 70.6354C72.9643 70.731 73.0929 70.7821 73.2203 70.7821C73.3242 70.7821 73.4268 70.751 73.5159 70.6844C73.7125 70.5399 73.7781 70.2688 73.6618 70.051L70.5934 64.1445H118.5C118.776 64.1445 119 63.9201 119 63.6445V61.4958C119 29.7946 93.2062 4 61.5008 4Z" fill="#17E26E"/>
<path d="M63.6466 73.8842H59.3514C59.0758 73.8842 58.8514 74.1087 58.8514 74.3842V113.638C32.2901 112.305 10.6953 90.71 9.35984 64.149H52.0205L49.3273 70.08C49.2273 70.2999 49.2984 70.5599 49.4984 70.6977C49.5829 70.7577 49.6828 70.7865 49.7829 70.7865C49.9117 70.7865 50.0384 70.7354 50.1362 70.6398L58.9847 61.7935C59.0781 61.7002 59.1314 61.5736 59.1314 61.4403C59.1314 61.3069 59.0781 61.1802 58.9847 61.0869L50.1362 52.2405C50.0384 52.1449 49.9095 52.0939 49.7829 52.0939C49.6828 52.0939 49.5829 52.125 49.4962 52.185C49.2984 52.325 49.2273 52.585 49.3295 52.805L52.1405 58.8558H4.50002C4.22447 58.8558 4 59.0803 4 59.3558V61.5025C4 93.2082 29.7947 119.003 61.4996 119.003H63.6466C63.9224 119.003 64.1463 118.778 64.1463 118.502V74.3842C64.1463 74.1087 63.9224 73.8842 63.6466 73.8842Z" fill="#03C7F4"/>
<path d="M80.8424 74.0063H74.347V80.5018H80.8424V74.0063Z" fill="url(#paint1_linear_527:22)"/>
<path d="M87.3366 80.4993H80.8424V86.9948H87.3366V80.4993Z" fill="url(#paint2_linear_527:22)"/>
<path d="M80.8412 86.9948H74.347V93.4902H80.8412V86.9948Z" fill="url(#paint3_linear_527:22)"/>
<path d="M93.884 100.039H87.3885V106.534H93.884V100.039Z" fill="url(#paint4_linear_527:22)"/>
<path d="M100.257 93.6683H93.7616V100.164H100.257V93.6683Z" fill="url(#paint5_linear_527:22)"/>
<path d="M100.257 80.4993H93.7616V86.9948H100.257V80.4993Z" fill="url(#paint6_linear_527:22)"/>
<path d="M106.75 74.0063H100.255V80.5018H106.75V74.0063Z" fill="url(#paint7_linear_527:22)"/>
<path d="M113.245 80.4993H106.75V86.9948H113.245V80.4993Z" fill="url(#paint8_linear_527:22)"/>
<defs>
<linearGradient id="paint0_linear_527:22" x1="-7.1076" y1="-7.10791" x2="117.877" y2="117.877" gradientUnits="userSpaceOnUse">
<stop stop-color="#FFEE25"/>
<stop offset="0.0178" stop-color="#FFE920"/>
<stop offset="0.102" stop-color="#FED60E"/>
<stop offset="0.1886" stop-color="#FDCB04"/>
<stop offset="0.2809" stop-color="#FDC700"/>
<stop offset="0.6685" stop-color="#F08F34"/>
<stop offset="0.8876" stop-color="#E86031"/>
<stop offset="1" stop-color="#E2312D"/>
</linearGradient>
<linearGradient id="paint1_linear_527:22" x1="6.4161" y1="6.07506" x2="113.736" y2="113.394" gradientUnits="userSpaceOnUse">
<stop stop-color="#FFEE25"/>
<stop offset="0.0178" stop-color="#FFE920"/>
<stop offset="0.102" stop-color="#FED60E"/>
<stop offset="0.1886" stop-color="#FDCB04"/>
<stop offset="0.2809" stop-color="#FDC700"/>
<stop offset="0.6685" stop-color="#F08F34"/>
<stop offset="0.8876" stop-color="#E86031"/>
<stop offset="1" stop-color="#E2312D"/>
</linearGradient>
<linearGradient id="paint2_linear_527:22" x1="6.41565" y1="6.0748" x2="113.735" y2="113.394" gradientUnits="userSpaceOnUse">
<stop stop-color="#FFEE25"/>
<stop offset="0.0178" stop-color="#FFE920"/>
<stop offset="0.102" stop-color="#FED60E"/>
<stop offset="0.1886" stop-color="#FDCB04"/>
<stop offset="0.2809" stop-color="#FDC700"/>
<stop offset="0.6685" stop-color="#F08F34"/>
<stop offset="0.8876" stop-color="#E86031"/>
<stop offset="1" stop-color="#E2312D"/>
</linearGradient>
<linearGradient id="paint3_linear_527:22" x1="-0.0788374" y1="12.5704" x2="107.24" y2="119.888" gradientUnits="userSpaceOnUse">
<stop stop-color="#FFEE25"/>
<stop offset="0.0178" stop-color="#FFE920"/>
<stop offset="0.102" stop-color="#FED60E"/>
<stop offset="0.1886" stop-color="#FDCB04"/>
<stop offset="0.2809" stop-color="#FDC700"/>
<stop offset="0.6685" stop-color="#F08F34"/>
<stop offset="0.8876" stop-color="#E86031"/>
<stop offset="1" stop-color="#E2312D"/>
</linearGradient>
<linearGradient id="paint4_linear_527:22" x1="-0.0792398" y1="12.5702" x2="107.24" y2="119.889" gradientUnits="userSpaceOnUse">
<stop stop-color="#FFEE25"/>
<stop offset="0.0178" stop-color="#FFE920"/>
<stop offset="0.102" stop-color="#FED60E"/>
<stop offset="0.1886" stop-color="#FDCB04"/>
<stop offset="0.2809" stop-color="#FDC700"/>
<stop offset="0.6685" stop-color="#F08F34"/>
<stop offset="0.8876" stop-color="#E86031"/>
<stop offset="1" stop-color="#E2312D"/>
</linearGradient>
<linearGradient id="paint5_linear_527:22" x1="6.29232" y1="6.19837" x2="113.611" y2="113.517" gradientUnits="userSpaceOnUse">
<stop stop-color="#FFEE25"/>
<stop offset="0.0178" stop-color="#FFE920"/>
<stop offset="0.102" stop-color="#FED60E"/>
<stop offset="0.1886" stop-color="#FDCB04"/>
<stop offset="0.2809" stop-color="#FDC700"/>
<stop offset="0.6685" stop-color="#F08F34"/>
<stop offset="0.8876" stop-color="#E86031"/>
<stop offset="1" stop-color="#E2312D"/>
</linearGradient>
<linearGradient id="paint6_linear_527:22" x1="12.8754" y1="-0.384914" x2="120.195" y2="106.935" gradientUnits="userSpaceOnUse">
<stop stop-color="#FFEE25"/>
<stop offset="0.0178" stop-color="#FFE920"/>
<stop offset="0.102" stop-color="#FED60E"/>
<stop offset="0.1886" stop-color="#FDCB04"/>
<stop offset="0.2809" stop-color="#FDC700"/>
<stop offset="0.6685" stop-color="#F08F34"/>
<stop offset="0.8876" stop-color="#E86031"/>
<stop offset="1" stop-color="#E2312D"/>
</linearGradient>
<linearGradient id="paint7_linear_527:22" x1="19.3703" y1="-6.87968" x2="126.69" y2="100.439" gradientUnits="userSpaceOnUse">
<stop stop-color="#FFEE25"/>
<stop offset="0.0178" stop-color="#FFE920"/>
<stop offset="0.102" stop-color="#FED60E"/>
<stop offset="0.1886" stop-color="#FDCB04"/>
<stop offset="0.2809" stop-color="#FDC700"/>
<stop offset="0.6685" stop-color="#F08F34"/>
<stop offset="0.8876" stop-color="#E86031"/>
<stop offset="1" stop-color="#E2312D"/>
</linearGradient>
<linearGradient id="paint8_linear_527:22" x1="19.3706" y1="-6.88" x2="126.691" y2="100.439" gradientUnits="userSpaceOnUse">
<stop stop-color="#FFEE25"/>
<stop offset="0.0178" stop-color="#FFE920"/>
<stop offset="0.102" stop-color="#FED60E"/>
<stop offset="0.1886" stop-color="#FDCB04"/>
<stop offset="0.2809" stop-color="#FDC700"/>
<stop offset="0.6685" stop-color="#F08F34"/>
<stop offset="0.8876" stop-color="#E86031"/>
<stop offset="1" stop-color="#E2312D"/>
</linearGradient>
</defs>
</svg>
